M48
; DRILL file {KiCad 7.0.5} date Wed Jul 12 17:52:21 2023
; FORMAT={-:-/ absolute / inch / decimal}
; #@! TF.CreationDate,2023-07-12T17:52:21+03:00
; #@! TF.GenerationSoftware,Kicad,Pcbnew,7.0.5
; #@! TF.FileFunction,NonPlated,1,2,NPTH
FMAT,2
INCH
; #@! TA.AperFunction,NonPlated,NPTH,ComponentDrill
T1C0.0197
; #@! TA.AperFunction,NonPlated,NPTH,ComponentDrill
T2C0.1181
%
G90
G05
T1
X1.7323Y-1.063
X1.7323Y-7.0472
X1.7717Y-1.063
X1.7717Y-7.0472
X1.811Y-1.063
X1.811Y-7.0472
X1.8504Y-1.063
X1.8504Y-7.0472
X1.8898Y-1.063
X1.8898Y-7.0472
X1.9291Y-1.063
X1.9291Y-7.0472
X2.0079Y-0.7874
X2.0079Y-0.8268
X2.0079Y-0.8661
X2.0079Y-0.9055
X2.0079Y-0.9449
X2.0079Y-0.9843
X2.0079Y-7.126
X2.0079Y-7.1654
X2.0079Y-7.2047
X2.0079Y-7.2441
X2.0079Y-7.2835
X2.0079Y-7.3228
X2.0157Y-2.4803
X2.0157Y-2.5197
X2.0157Y-2.5591
X2.0157Y-2.5984
X2.0157Y-5.5118
X2.0157Y-5.5512
X2.0157Y-5.5906
X2.0157Y-5.6299
X3.4252Y-1.0709
X3.4252Y-4.0079
X3.4252Y-4.1024
X3.4252Y-7.0394
X3.4646Y-1.0709
X3.4646Y-4.0079
X3.4646Y-4.1024
X3.4646Y-7.0394
X3.5039Y-1.0709
X3.5039Y-4.0079
X3.5039Y-4.1024
X3.5039Y-7.0394
X3.5433Y-1.0709
X3.5433Y-4.0079
X3.5433Y-4.1024
X3.5433Y-7.0394
X4.9528Y-2.4803
X4.9528Y-2.5197
X4.9528Y-2.5591
X4.9528Y-2.5984
X4.9528Y-5.5118
X4.9528Y-5.5512
X4.9528Y-5.5906
X4.9528Y-5.6299
X5.0472Y-2.4803
X5.0472Y-2.5197
X5.0472Y-2.5591
X5.0472Y-2.5984
X5.0472Y-5.5118
X5.0472Y-5.5512
X5.0472Y-5.5906
X5.0472Y-5.6299
X6.4567Y-1.0709
X6.4567Y-4.0079
X6.4567Y-4.1024
X6.4567Y-7.0394
X6.4961Y-1.0709
X6.4961Y-4.0079
X6.4961Y-4.1024
X6.4961Y-7.0394
X6.5354Y-1.0709
X6.5354Y-4.0079
X6.5354Y-4.1024
X6.5354Y-7.0394
X6.5748Y-1.0709
X6.5748Y-4.0079
X6.5748Y-4.1024
X6.5748Y-7.0394
X7.9843Y-2.4803
X7.9843Y-2.5197
X7.9843Y-2.5591
X7.9843Y-2.5984
X7.9843Y-5.5118
X7.9843Y-5.5512
X7.9843Y-5.5906
X7.9843Y-5.6299
X7.9921Y-0.7874
X7.9921Y-0.8268
X7.9921Y-0.8661
X7.9921Y-0.9055
X7.9921Y-0.9449
X7.9921Y-0.9843
X7.9921Y-7.126
X7.9921Y-7.1654
X7.9921Y-7.2047
X7.9921Y-7.2441
X7.9921Y-7.2835
X7.9921Y-7.3228
X8.0709Y-1.063
X8.0709Y-7.0472
X8.1102Y-1.063
X8.1102Y-7.0472
X8.1496Y-1.063
X8.1496Y-7.0472
X8.189Y-1.063
X8.189Y-7.0472
X8.2283Y-1.063
X8.2283Y-7.0472
X8.2677Y-1.063
X8.2677Y-7.0472
T2
X6.0008Y-2.5185
X6.0008Y-3.4835
X7.8492Y-2.5185
X7.8492Y-3.4835
T0
M30
