M48
; DRILL file {KiCad 7.0.5} date Wed Jul 12 17:52:21 2023
; FORMAT={-:-/ absolute / inch / decimal}
; #@! TF.CreationDate,2023-07-12T17:52:21+03:00
; #@! TF.GenerationSoftware,Kicad,Pcbnew,7.0.5
; #@! TF.FileFunction,Plated,1,2,PTH
FMAT,2
INCH
; #@! TA.AperFunction,Plated,PTH,ComponentDrill
T1C0.0236
; #@! TA.AperFunction,Plated,PTH,ComponentDrill
T2C0.0281
; #@! TA.AperFunction,Plated,PTH,ComponentDrill
T3C0.0354
; #@! TA.AperFunction,Plated,PTH,ViaDrill
T4C0.0394
; #@! TA.AperFunction,Plated,PTH,ComponentDrill
T5C0.0394
; #@! TA.AperFunction,Plated,PTH,ComponentDrill
T6C0.0402
; #@! TA.AperFunction,Plated,PTH,ComponentDrill
T7C0.0512
; #@! TA.AperFunction,Plated,PTH,ViaDrill
T8C0.0984
%
G90
G05
T1
X2.6231Y-4.8162
X2.6231Y-6.391
X2.6281Y-5.546
X2.6731Y-4.8162
X2.6731Y-6.391
X2.6781Y-5.546
X2.7231Y-4.8162
X2.7231Y-6.391
X2.7281Y-5.546
X2.7731Y-4.8162
X2.7731Y-6.391
X2.7781Y-5.546
X3.4106Y-4.8162
X3.4106Y-6.391
X3.4156Y-5.546
X3.4606Y-4.8162
X3.4606Y-6.391
X3.4656Y-5.546
X3.5106Y-4.8162
X3.5106Y-6.391
X3.5156Y-5.546
X3.5606Y-4.8162
X3.5606Y-6.391
X3.5656Y-5.546
X4.198Y-4.8162
X4.198Y-6.391
X4.203Y-5.546
X4.248Y-4.8162
X4.248Y-6.391
X4.253Y-5.546
X4.298Y-4.8162
X4.298Y-6.391
X4.303Y-5.546
X4.348Y-4.8162
X4.348Y-6.391
X4.353Y-5.546
T2
X6.8447Y-1.5236
X6.9447Y-1.4236
X7.0447Y-1.5236
T3
X4.0797Y-1.696
X4.1797Y-1.696
T4
X2.7087Y-5.7406
X2.7226Y-4.6068
X2.7226Y-6.1895
X3.4646Y-5.7485
X3.51Y-6.1895
X3.5118Y-4.6068
X4.252Y-5.7643
X4.2974Y-4.6068
X4.2974Y-6.1737
X5.1882Y-2.6556
X5.3583Y-2.2317
X5.3929Y-2.443
X5.4362Y-1.2462
X5.5714Y-2.8155
X5.6201Y-2.3917
X5.6594Y-2.8169
X5.6843Y-2.7068
X5.72Y-1.3811
X5.7402Y-1.9764
X5.8497Y-3.0082
X5.937Y-1.4409
X6.0236Y-2.2441
X6.1265Y-4.8031
X6.137Y-1.3958
X6.25Y-1.4567
X6.322Y-2.2737
X6.3839Y-1.2501
X6.4126Y-3.3879
X6.4962Y-1.1619
X6.5118Y-1.9528
X6.5157Y-1.25
X6.5354Y-1.5354
X6.6634Y-1.25
X6.6733Y-1.1619
X6.7618Y-1.2402
X6.7721Y-4.8031
X7.0276Y-1.7623
X7.2394Y-3.7659
X7.3141Y-3.26
X7.3142Y-3.6911
X7.3229Y-1.7623
X7.3425Y-1.9488
X7.3425Y-2.1457
X7.3575Y-3.9155
X7.452Y-3.6074
X7.5236Y-3.6044
X7.6055Y-3.6635
X7.6141Y-3.265
X7.6646Y-1.9627
X7.6782Y-3.8583
X7.6961Y-2.2619
X7.7Y-3.7226
X7.7367Y-4.498
T5
X4.2947Y-3.9059
X4.3947Y-3.9059
X4.4947Y-3.9059
X4.5599Y-6.1911
X4.5599Y-6.2911
X4.5599Y-6.3911
X4.5947Y-3.9059
X4.6947Y-3.9059
X5.8432Y-3.1479
X5.8432Y-3.2479
X5.8432Y-3.3479
X5.8701Y-1.8764
X5.9701Y-1.8764
X6.187Y-1.8701
X6.287Y-1.8701
X6.4178Y-3.7992
X6.4178Y-4.252
X6.5178Y-3.7992
X6.5178Y-4.252
X6.6178Y-3.7992
X6.6178Y-4.252
X6.7178Y-3.7992
X6.7178Y-4.252
X6.8178Y-3.7992
X6.8178Y-4.252
X6.9178Y-3.7992
X6.9178Y-4.252
X7.0178Y-3.7992
X7.0178Y-4.252
X7.0686Y-1.198
X7.1686Y-1.198
X7.2686Y-1.198
X7.3686Y-1.198
X7.4686Y-1.198
X7.5Y-2.0472
X7.5Y-2.1472
X7.5Y-2.2472
X7.853Y-2.0465
X7.853Y-2.1465
X7.853Y-2.2465
X7.853Y-2.3465
T6
X6.3142Y-2.5
X6.3142Y-3.5
X6.4142Y-2.5
X6.4142Y-3.5
X6.5142Y-2.5
X6.5142Y-3.5
X6.6142Y-2.5
X6.6142Y-3.5
X6.7142Y-2.5
X6.7142Y-3.5
X6.8142Y-2.5
X6.8142Y-3.5
X6.9142Y-2.5
X6.9142Y-3.5
X7.0142Y-2.5
X7.0142Y-3.5
X7.1142Y-2.5
X7.1142Y-3.5
X7.2142Y-2.5
X7.2142Y-3.5
X7.3142Y-2.5
X7.3142Y-3.5
X7.4142Y-2.5
X7.4142Y-3.5
X7.5142Y-2.5
X7.5142Y-3.5
X7.6142Y-2.5
X7.6142Y-3.5
X7.7142Y-2.5
X7.7142Y-3.5
T7
X2.4803Y-1.4572
X2.4803Y-1.9493
X2.6772Y-1.4572
X2.6772Y-1.9493
X3.2698Y-1.4597
X3.2698Y-1.9519
X3.4666Y-1.4597
X3.4666Y-1.9519
X5.6304Y-4.5866
X5.6304Y-5.0787
X5.6304Y-5.374
X5.6304Y-5.8661
X5.6304Y-6.1614
X5.6304Y-6.6535
X5.8273Y-4.5866
X5.8273Y-5.0787
X5.8273Y-5.374
X5.8273Y-5.8661
X5.8273Y-6.1614
X5.8273Y-6.6535
X6.4178Y-4.5866
X6.4178Y-5.0787
X6.4178Y-5.374
X6.4178Y-5.8661
X6.4178Y-6.1614
X6.4178Y-6.6535
X6.6147Y-4.5866
X6.6147Y-5.0787
X6.6147Y-5.374
X6.6147Y-5.8661
X6.6147Y-6.1614
X6.6147Y-6.6535
X7.2052Y-4.5866
X7.2052Y-5.0787
X7.2052Y-5.374
X7.2052Y-5.8661
X7.2052Y-6.1614
X7.2052Y-6.6535
X7.4021Y-4.5866
X7.4021Y-5.0787
X7.4021Y-5.374
X7.4021Y-5.8661
X7.4021Y-6.1614
X7.4021Y-6.6535
T8
X2.1063Y-4.1934
X2.1063Y-6.9493
X2.1083Y-1.1645
X2.1083Y-3.9204
X4.8622Y-4.1934
X4.8622Y-6.9493
X4.8642Y-1.1645
X4.8642Y-3.9204
X5.1378Y-1.1614
X5.1383Y-4.1929
X5.1383Y-6.9488
X5.9252Y-3.9173
X7.8937Y-1.1614
X7.8937Y-3.9173
X7.8942Y-4.1929
X7.8942Y-6.9488
T0
M30
