M48
; DRILL file {KiCad 7.0.5} date Tue Jul 11 14:32:48 2023
; FORMAT={-:-/ absolute / inch / decimal}
; #@! TF.CreationDate,2023-07-11T14:32:48+03:00
; #@! TF.GenerationSoftware,Kicad,Pcbnew,7.0.5
; #@! TF.FileFunction,Plated,1,2,PTH
FMAT,2
INCH
; #@! TA.AperFunction,Plated,PTH,ComponentDrill
T1C0.0281
; #@! TA.AperFunction,Plated,PTH,ComponentDrill
T2C0.0354
; #@! TA.AperFunction,Plated,PTH,ViaDrill
T3C0.0394
; #@! TA.AperFunction,Plated,PTH,ComponentDrill
T4C0.0394
; #@! TA.AperFunction,Plated,PTH,ComponentDrill
T5C0.0402
; #@! TA.AperFunction,Plated,PTH,ComponentDrill
T6C0.0512
; #@! TA.AperFunction,Plated,PTH,ViaDrill
T7C0.0984
%
G90
G05
T1
X6.8447Y-1.5236
X6.9447Y-1.4236
X7.0447Y-1.5236
T2
X2.6228Y-4.8152
X2.6228Y-6.3901
X2.6291Y-5.5464
X2.6728Y-4.8152
X2.6728Y-6.3901
X2.6791Y-5.5464
X2.7228Y-4.8152
X2.7228Y-6.3901
X2.7291Y-5.5464
X2.7728Y-4.8152
X2.7728Y-6.3901
X2.7791Y-5.5464
X3.4102Y-4.8152
X3.4102Y-6.3901
X3.4165Y-5.5464
X3.4602Y-4.8152
X3.4602Y-6.3901
X3.4665Y-5.5464
X3.5102Y-4.8152
X3.5102Y-6.3901
X3.5165Y-5.5464
X3.5602Y-4.8152
X3.5602Y-6.3901
X3.5665Y-5.5464
X4.0781Y-1.6929
X4.1781Y-1.6929
X4.1976Y-4.8152
X4.1976Y-6.3901
X4.2039Y-5.5464
X4.2476Y-4.8152
X4.2476Y-6.3901
X4.2539Y-5.5464
X4.2976Y-4.8152
X4.2976Y-6.3901
X4.3039Y-5.5464
X4.3476Y-4.8152
X4.3476Y-6.3901
X4.3539Y-5.5464
T3
X2.7087Y-5.7397
X2.7226Y-4.6058
X2.7226Y-6.1885
X3.4646Y-5.7475
X3.51Y-6.1885
X3.5118Y-4.6058
X4.252Y-5.7633
X4.2974Y-4.6058
X4.2974Y-6.1727
X4.4276Y-3.9014
X4.4945Y-3.903
X4.5571Y-6.1806
X4.5571Y-6.2889
X4.5572Y-6.3901
X4.5614Y-3.901
X4.6283Y-3.9033
X4.6952Y-3.9032
X5.1882Y-2.6556
X5.3583Y-2.2317
X5.3929Y-2.443
X5.4362Y-1.2462
X5.5714Y-2.8155
X5.6201Y-2.3917
X5.6594Y-2.8169
X5.6843Y-2.7068
X5.72Y-1.3811
X5.7402Y-1.9764
X5.8465Y-3.1496
X5.8465Y-3.2283
X5.8465Y-3.317
X5.8497Y-3.0082
X5.937Y-1.4409
X6.0236Y-2.2441
X6.1255Y-4.8031
X6.137Y-1.3958
X6.25Y-1.4567
X6.322Y-2.2737
X6.3839Y-1.2501
X6.4126Y-3.3879
X6.4902Y-1.134
X6.5118Y-1.9528
X6.5157Y-1.25
X6.5354Y-1.5354
X6.5814Y-4.2462
X6.5819Y-3.8761
X6.5886Y-1.134
X6.6488Y-3.8761
X6.6634Y-1.25
X6.7157Y-3.8761
X6.7161Y-4.2441
X6.7618Y-1.2402
X6.7712Y-4.8031
X6.7826Y-3.8761
X6.783Y-4.2441
X6.8495Y-3.8761
X6.8499Y-4.2441
X6.9164Y-3.8761
X6.9169Y-4.2441
X6.9833Y-3.8761
X6.9838Y-4.2441
X7.0079Y-1.1417
X7.0276Y-1.3583
X7.0503Y-3.8761
X7.0507Y-4.2441
X7.0965Y-1.1417
X7.1752Y-1.1417
X7.2394Y-3.7659
X7.254Y-1.1417
X7.3141Y-3.26
X7.3142Y-3.6911
X7.3327Y-1.1417
X7.3425Y-1.9488
X7.3425Y-2.1457
X7.3575Y-3.9155
X7.372Y-1.437
X7.452Y-3.6074
X7.5236Y-3.6044
X7.6055Y-3.6635
X7.6141Y-3.265
X7.6646Y-1.9627
X7.6782Y-3.8583
X7.6961Y-2.2619
X7.7Y-3.7226
X7.7357Y-4.498
T4
X5.8701Y-1.8764
X5.9701Y-1.8764
X6.187Y-1.8701
X6.287Y-1.8701
X7.5Y-2.0472
X7.5Y-2.1472
X7.5Y-2.2472
X7.853Y-2.0465
X7.853Y-2.1465
X7.853Y-2.2465
X7.853Y-2.3465
T5
X6.3142Y-2.5
X6.3142Y-3.5
X6.4142Y-2.5
X6.4142Y-3.5
X6.5142Y-2.5
X6.5142Y-3.5
X6.6142Y-2.5
X6.6142Y-3.5
X6.7142Y-2.5
X6.7142Y-3.5
X6.8142Y-2.5
X6.8142Y-3.5
X6.9142Y-2.5
X6.9142Y-3.5
X7.0142Y-2.5
X7.0142Y-3.5
X7.1142Y-2.5
X7.1142Y-3.5
X7.2142Y-2.5
X7.2142Y-3.5
X7.3142Y-2.5
X7.3142Y-3.5
X7.4142Y-2.5
X7.4142Y-3.5
X7.5142Y-2.5
X7.5142Y-3.5
X7.6142Y-2.5
X7.6142Y-3.5
X7.7142Y-2.5
X7.7142Y-3.5
T6
X2.4806Y-1.4567
X2.4806Y-1.9488
X2.6775Y-1.4567
X2.6775Y-1.9488
X3.268Y-1.4567
X3.268Y-1.9488
X3.4649Y-1.4567
X3.4649Y-1.9488
X5.6294Y-4.5866
X5.6294Y-5.0787
X5.6294Y-5.374
X5.6294Y-5.8661
X5.6294Y-6.1614
X5.6294Y-6.6535
X5.8263Y-4.5866
X5.8263Y-5.0787
X5.8263Y-5.374
X5.8263Y-5.8661
X5.8263Y-6.1614
X5.8263Y-6.6535
X6.4168Y-4.5866
X6.4168Y-5.0787
X6.4168Y-5.374
X6.4168Y-5.8661
X6.4168Y-6.1614
X6.4168Y-6.6535
X6.6137Y-4.5866
X6.6137Y-5.0787
X6.6137Y-5.374
X6.6137Y-5.8661
X6.6137Y-6.1614
X6.6137Y-6.6535
X7.2042Y-4.5866
X7.2042Y-5.0787
X7.2042Y-5.374
X7.2042Y-5.8661
X7.2042Y-6.1614
X7.2042Y-6.6535
X7.4011Y-4.5866
X7.4011Y-5.0787
X7.4011Y-5.374
X7.4011Y-5.8661
X7.4011Y-6.1614
X7.4011Y-6.6535
T7
X2.1063Y-4.1924
X2.1063Y-6.9483
X2.1066Y-1.1614
X2.1066Y-3.9173
X4.8622Y-4.1924
X4.8622Y-6.9483
X4.8625Y-1.1614
X4.8625Y-3.9173
X5.1373Y-4.1929
X5.1373Y-6.9488
X5.1378Y-1.1614
X5.9252Y-3.9173
X7.8932Y-4.1929
X7.8932Y-6.9488
X7.8937Y-1.1614
X7.8937Y-3.9173
T0
M30
