%TF.GenerationSoftware,KiCad,Pcbnew,7.0.2*%
%TF.CreationDate,2023-07-05T22:01:38+03:00*%
%TF.ProjectId,strange_games,73747261-6e67-4655-9f67-616d65732e6b,rev?*%
%TF.SameCoordinates,Original*%
%TF.FileFunction,Legend,Top*%
%TF.FilePolarity,Positive*%
%FSLAX46Y46*%
G04 Gerber Fmt 4.6, Leading zero omitted, Abs format (unit mm)*
G04 Created by KiCad (PCBNEW 7.0.2) date 2023-07-05 22:01:38*
%MOMM*%
%LPD*%
G01*
G04 APERTURE LIST*
%ADD10C,0.150000*%
%ADD11C,0.120000*%
%ADD12C,0.200000*%
%ADD13C,0.127000*%
%ADD14C,0.100000*%
G04 APERTURE END LIST*
D10*
X135846000Y-110540000D02*
X191846000Y-110540000D01*
X135846000Y-69290000D02*
X135846000Y-110540000D01*
X191844924Y-69290000D02*
X135844924Y-69290000D01*
X191846000Y-110540000D02*
X191844924Y-69290000D01*
%TO.C,R4*%
X165522533Y-54885619D02*
X165189200Y-54409428D01*
X164951105Y-54885619D02*
X164951105Y-53885619D01*
X164951105Y-53885619D02*
X165332057Y-53885619D01*
X165332057Y-53885619D02*
X165427295Y-53933238D01*
X165427295Y-53933238D02*
X165474914Y-53980857D01*
X165474914Y-53980857D02*
X165522533Y-54076095D01*
X165522533Y-54076095D02*
X165522533Y-54218952D01*
X165522533Y-54218952D02*
X165474914Y-54314190D01*
X165474914Y-54314190D02*
X165427295Y-54361809D01*
X165427295Y-54361809D02*
X165332057Y-54409428D01*
X165332057Y-54409428D02*
X164951105Y-54409428D01*
X166379676Y-54218952D02*
X166379676Y-54885619D01*
X166141581Y-53838000D02*
X165903486Y-54552285D01*
X165903486Y-54552285D02*
X166522533Y-54552285D01*
%TO.C,C5*%
X176687333Y-54845380D02*
X176639714Y-54893000D01*
X176639714Y-54893000D02*
X176496857Y-54940619D01*
X176496857Y-54940619D02*
X176401619Y-54940619D01*
X176401619Y-54940619D02*
X176258762Y-54893000D01*
X176258762Y-54893000D02*
X176163524Y-54797761D01*
X176163524Y-54797761D02*
X176115905Y-54702523D01*
X176115905Y-54702523D02*
X176068286Y-54512047D01*
X176068286Y-54512047D02*
X176068286Y-54369190D01*
X176068286Y-54369190D02*
X176115905Y-54178714D01*
X176115905Y-54178714D02*
X176163524Y-54083476D01*
X176163524Y-54083476D02*
X176258762Y-53988238D01*
X176258762Y-53988238D02*
X176401619Y-53940619D01*
X176401619Y-53940619D02*
X176496857Y-53940619D01*
X176496857Y-53940619D02*
X176639714Y-53988238D01*
X176639714Y-53988238D02*
X176687333Y-54035857D01*
X177592095Y-53940619D02*
X177115905Y-53940619D01*
X177115905Y-53940619D02*
X177068286Y-54416809D01*
X177068286Y-54416809D02*
X177115905Y-54369190D01*
X177115905Y-54369190D02*
X177211143Y-54321571D01*
X177211143Y-54321571D02*
X177449238Y-54321571D01*
X177449238Y-54321571D02*
X177544476Y-54369190D01*
X177544476Y-54369190D02*
X177592095Y-54416809D01*
X177592095Y-54416809D02*
X177639714Y-54512047D01*
X177639714Y-54512047D02*
X177639714Y-54750142D01*
X177639714Y-54750142D02*
X177592095Y-54845380D01*
X177592095Y-54845380D02*
X177544476Y-54893000D01*
X177544476Y-54893000D02*
X177449238Y-54940619D01*
X177449238Y-54940619D02*
X177211143Y-54940619D01*
X177211143Y-54940619D02*
X177115905Y-54893000D01*
X177115905Y-54893000D02*
X177068286Y-54845380D01*
%TO.C,R19*%
X185078096Y-54981670D02*
X184744763Y-54505479D01*
X184506668Y-54981670D02*
X184506668Y-53981670D01*
X184506668Y-53981670D02*
X184887620Y-53981670D01*
X184887620Y-53981670D02*
X184982858Y-54029289D01*
X184982858Y-54029289D02*
X185030477Y-54076908D01*
X185030477Y-54076908D02*
X185078096Y-54172146D01*
X185078096Y-54172146D02*
X185078096Y-54315003D01*
X185078096Y-54315003D02*
X185030477Y-54410241D01*
X185030477Y-54410241D02*
X184982858Y-54457860D01*
X184982858Y-54457860D02*
X184887620Y-54505479D01*
X184887620Y-54505479D02*
X184506668Y-54505479D01*
X186030477Y-54981670D02*
X185459049Y-54981670D01*
X185744763Y-54981670D02*
X185744763Y-53981670D01*
X185744763Y-53981670D02*
X185649525Y-54124527D01*
X185649525Y-54124527D02*
X185554287Y-54219765D01*
X185554287Y-54219765D02*
X185459049Y-54267384D01*
X186506668Y-54981670D02*
X186697144Y-54981670D01*
X186697144Y-54981670D02*
X186792382Y-54934051D01*
X186792382Y-54934051D02*
X186840001Y-54886431D01*
X186840001Y-54886431D02*
X186935239Y-54743574D01*
X186935239Y-54743574D02*
X186982858Y-54553098D01*
X186982858Y-54553098D02*
X186982858Y-54172146D01*
X186982858Y-54172146D02*
X186935239Y-54076908D01*
X186935239Y-54076908D02*
X186887620Y-54029289D01*
X186887620Y-54029289D02*
X186792382Y-53981670D01*
X186792382Y-53981670D02*
X186601906Y-53981670D01*
X186601906Y-53981670D02*
X186506668Y-54029289D01*
X186506668Y-54029289D02*
X186459049Y-54076908D01*
X186459049Y-54076908D02*
X186411430Y-54172146D01*
X186411430Y-54172146D02*
X186411430Y-54410241D01*
X186411430Y-54410241D02*
X186459049Y-54505479D01*
X186459049Y-54505479D02*
X186506668Y-54553098D01*
X186506668Y-54553098D02*
X186601906Y-54600717D01*
X186601906Y-54600717D02*
X186792382Y-54600717D01*
X186792382Y-54600717D02*
X186887620Y-54553098D01*
X186887620Y-54553098D02*
X186935239Y-54505479D01*
X186935239Y-54505479D02*
X186982858Y-54410241D01*
%TO.C,R6*%
X165577333Y-57480619D02*
X165244000Y-57004428D01*
X165005905Y-57480619D02*
X165005905Y-56480619D01*
X165005905Y-56480619D02*
X165386857Y-56480619D01*
X165386857Y-56480619D02*
X165482095Y-56528238D01*
X165482095Y-56528238D02*
X165529714Y-56575857D01*
X165529714Y-56575857D02*
X165577333Y-56671095D01*
X165577333Y-56671095D02*
X165577333Y-56813952D01*
X165577333Y-56813952D02*
X165529714Y-56909190D01*
X165529714Y-56909190D02*
X165482095Y-56956809D01*
X165482095Y-56956809D02*
X165386857Y-57004428D01*
X165386857Y-57004428D02*
X165005905Y-57004428D01*
X166434476Y-56480619D02*
X166244000Y-56480619D01*
X166244000Y-56480619D02*
X166148762Y-56528238D01*
X166148762Y-56528238D02*
X166101143Y-56575857D01*
X166101143Y-56575857D02*
X166005905Y-56718714D01*
X166005905Y-56718714D02*
X165958286Y-56909190D01*
X165958286Y-56909190D02*
X165958286Y-57290142D01*
X165958286Y-57290142D02*
X166005905Y-57385380D01*
X166005905Y-57385380D02*
X166053524Y-57433000D01*
X166053524Y-57433000D02*
X166148762Y-57480619D01*
X166148762Y-57480619D02*
X166339238Y-57480619D01*
X166339238Y-57480619D02*
X166434476Y-57433000D01*
X166434476Y-57433000D02*
X166482095Y-57385380D01*
X166482095Y-57385380D02*
X166529714Y-57290142D01*
X166529714Y-57290142D02*
X166529714Y-57052047D01*
X166529714Y-57052047D02*
X166482095Y-56956809D01*
X166482095Y-56956809D02*
X166434476Y-56909190D01*
X166434476Y-56909190D02*
X166339238Y-56861571D01*
X166339238Y-56861571D02*
X166148762Y-56861571D01*
X166148762Y-56861571D02*
X166053524Y-56909190D01*
X166053524Y-56909190D02*
X166005905Y-56956809D01*
X166005905Y-56956809D02*
X165958286Y-57052047D01*
%TO.C,C6*%
X136687333Y-54845380D02*
X136639714Y-54893000D01*
X136639714Y-54893000D02*
X136496857Y-54940619D01*
X136496857Y-54940619D02*
X136401619Y-54940619D01*
X136401619Y-54940619D02*
X136258762Y-54893000D01*
X136258762Y-54893000D02*
X136163524Y-54797761D01*
X136163524Y-54797761D02*
X136115905Y-54702523D01*
X136115905Y-54702523D02*
X136068286Y-54512047D01*
X136068286Y-54512047D02*
X136068286Y-54369190D01*
X136068286Y-54369190D02*
X136115905Y-54178714D01*
X136115905Y-54178714D02*
X136163524Y-54083476D01*
X136163524Y-54083476D02*
X136258762Y-53988238D01*
X136258762Y-53988238D02*
X136401619Y-53940619D01*
X136401619Y-53940619D02*
X136496857Y-53940619D01*
X136496857Y-53940619D02*
X136639714Y-53988238D01*
X136639714Y-53988238D02*
X136687333Y-54035857D01*
X137544476Y-53940619D02*
X137354000Y-53940619D01*
X137354000Y-53940619D02*
X137258762Y-53988238D01*
X137258762Y-53988238D02*
X137211143Y-54035857D01*
X137211143Y-54035857D02*
X137115905Y-54178714D01*
X137115905Y-54178714D02*
X137068286Y-54369190D01*
X137068286Y-54369190D02*
X137068286Y-54750142D01*
X137068286Y-54750142D02*
X137115905Y-54845380D01*
X137115905Y-54845380D02*
X137163524Y-54893000D01*
X137163524Y-54893000D02*
X137258762Y-54940619D01*
X137258762Y-54940619D02*
X137449238Y-54940619D01*
X137449238Y-54940619D02*
X137544476Y-54893000D01*
X137544476Y-54893000D02*
X137592095Y-54845380D01*
X137592095Y-54845380D02*
X137639714Y-54750142D01*
X137639714Y-54750142D02*
X137639714Y-54512047D01*
X137639714Y-54512047D02*
X137592095Y-54416809D01*
X137592095Y-54416809D02*
X137544476Y-54369190D01*
X137544476Y-54369190D02*
X137449238Y-54321571D01*
X137449238Y-54321571D02*
X137258762Y-54321571D01*
X137258762Y-54321571D02*
X137163524Y-54369190D01*
X137163524Y-54369190D02*
X137115905Y-54416809D01*
X137115905Y-54416809D02*
X137068286Y-54512047D01*
%TO.C,R3*%
X145522533Y-54885619D02*
X145189200Y-54409428D01*
X144951105Y-54885619D02*
X144951105Y-53885619D01*
X144951105Y-53885619D02*
X145332057Y-53885619D01*
X145332057Y-53885619D02*
X145427295Y-53933238D01*
X145427295Y-53933238D02*
X145474914Y-53980857D01*
X145474914Y-53980857D02*
X145522533Y-54076095D01*
X145522533Y-54076095D02*
X145522533Y-54218952D01*
X145522533Y-54218952D02*
X145474914Y-54314190D01*
X145474914Y-54314190D02*
X145427295Y-54361809D01*
X145427295Y-54361809D02*
X145332057Y-54409428D01*
X145332057Y-54409428D02*
X144951105Y-54409428D01*
X145855867Y-53885619D02*
X146474914Y-53885619D01*
X146474914Y-53885619D02*
X146141581Y-54266571D01*
X146141581Y-54266571D02*
X146284438Y-54266571D01*
X146284438Y-54266571D02*
X146379676Y-54314190D01*
X146379676Y-54314190D02*
X146427295Y-54361809D01*
X146427295Y-54361809D02*
X146474914Y-54457047D01*
X146474914Y-54457047D02*
X146474914Y-54695142D01*
X146474914Y-54695142D02*
X146427295Y-54790380D01*
X146427295Y-54790380D02*
X146379676Y-54838000D01*
X146379676Y-54838000D02*
X146284438Y-54885619D01*
X146284438Y-54885619D02*
X145998724Y-54885619D01*
X145998724Y-54885619D02*
X145903486Y-54838000D01*
X145903486Y-54838000D02*
X145855867Y-54790380D01*
%TO.C,R27*%
X185078096Y-57480619D02*
X184744763Y-57004428D01*
X184506668Y-57480619D02*
X184506668Y-56480619D01*
X184506668Y-56480619D02*
X184887620Y-56480619D01*
X184887620Y-56480619D02*
X184982858Y-56528238D01*
X184982858Y-56528238D02*
X185030477Y-56575857D01*
X185030477Y-56575857D02*
X185078096Y-56671095D01*
X185078096Y-56671095D02*
X185078096Y-56813952D01*
X185078096Y-56813952D02*
X185030477Y-56909190D01*
X185030477Y-56909190D02*
X184982858Y-56956809D01*
X184982858Y-56956809D02*
X184887620Y-57004428D01*
X184887620Y-57004428D02*
X184506668Y-57004428D01*
X185459049Y-56575857D02*
X185506668Y-56528238D01*
X185506668Y-56528238D02*
X185601906Y-56480619D01*
X185601906Y-56480619D02*
X185840001Y-56480619D01*
X185840001Y-56480619D02*
X185935239Y-56528238D01*
X185935239Y-56528238D02*
X185982858Y-56575857D01*
X185982858Y-56575857D02*
X186030477Y-56671095D01*
X186030477Y-56671095D02*
X186030477Y-56766333D01*
X186030477Y-56766333D02*
X185982858Y-56909190D01*
X185982858Y-56909190D02*
X185411430Y-57480619D01*
X185411430Y-57480619D02*
X186030477Y-57480619D01*
X186363811Y-56480619D02*
X187030477Y-56480619D01*
X187030477Y-56480619D02*
X186601906Y-57480619D01*
%TO.C,R5*%
X145577333Y-57480619D02*
X145244000Y-57004428D01*
X145005905Y-57480619D02*
X145005905Y-56480619D01*
X145005905Y-56480619D02*
X145386857Y-56480619D01*
X145386857Y-56480619D02*
X145482095Y-56528238D01*
X145482095Y-56528238D02*
X145529714Y-56575857D01*
X145529714Y-56575857D02*
X145577333Y-56671095D01*
X145577333Y-56671095D02*
X145577333Y-56813952D01*
X145577333Y-56813952D02*
X145529714Y-56909190D01*
X145529714Y-56909190D02*
X145482095Y-56956809D01*
X145482095Y-56956809D02*
X145386857Y-57004428D01*
X145386857Y-57004428D02*
X145005905Y-57004428D01*
X146482095Y-56480619D02*
X146005905Y-56480619D01*
X146005905Y-56480619D02*
X145958286Y-56956809D01*
X145958286Y-56956809D02*
X146005905Y-56909190D01*
X146005905Y-56909190D02*
X146101143Y-56861571D01*
X146101143Y-56861571D02*
X146339238Y-56861571D01*
X146339238Y-56861571D02*
X146434476Y-56909190D01*
X146434476Y-56909190D02*
X146482095Y-56956809D01*
X146482095Y-56956809D02*
X146529714Y-57052047D01*
X146529714Y-57052047D02*
X146529714Y-57290142D01*
X146529714Y-57290142D02*
X146482095Y-57385380D01*
X146482095Y-57385380D02*
X146434476Y-57433000D01*
X146434476Y-57433000D02*
X146339238Y-57480619D01*
X146339238Y-57480619D02*
X146101143Y-57480619D01*
X146101143Y-57480619D02*
X146005905Y-57433000D01*
X146005905Y-57433000D02*
X145958286Y-57385380D01*
%TO.C,C7*%
X156687333Y-54845380D02*
X156639714Y-54893000D01*
X156639714Y-54893000D02*
X156496857Y-54940619D01*
X156496857Y-54940619D02*
X156401619Y-54940619D01*
X156401619Y-54940619D02*
X156258762Y-54893000D01*
X156258762Y-54893000D02*
X156163524Y-54797761D01*
X156163524Y-54797761D02*
X156115905Y-54702523D01*
X156115905Y-54702523D02*
X156068286Y-54512047D01*
X156068286Y-54512047D02*
X156068286Y-54369190D01*
X156068286Y-54369190D02*
X156115905Y-54178714D01*
X156115905Y-54178714D02*
X156163524Y-54083476D01*
X156163524Y-54083476D02*
X156258762Y-53988238D01*
X156258762Y-53988238D02*
X156401619Y-53940619D01*
X156401619Y-53940619D02*
X156496857Y-53940619D01*
X156496857Y-53940619D02*
X156639714Y-53988238D01*
X156639714Y-53988238D02*
X156687333Y-54035857D01*
X157020667Y-53940619D02*
X157687333Y-53940619D01*
X157687333Y-53940619D02*
X157258762Y-54940619D01*
%TO.C,U4*%
X146843619Y-177856904D02*
X147653142Y-177856904D01*
X147653142Y-177856904D02*
X147748380Y-177809285D01*
X147748380Y-177809285D02*
X147796000Y-177761666D01*
X147796000Y-177761666D02*
X147843619Y-177666428D01*
X147843619Y-177666428D02*
X147843619Y-177475952D01*
X147843619Y-177475952D02*
X147796000Y-177380714D01*
X147796000Y-177380714D02*
X147748380Y-177333095D01*
X147748380Y-177333095D02*
X147653142Y-177285476D01*
X147653142Y-177285476D02*
X146843619Y-177285476D01*
X147176952Y-176380714D02*
X147843619Y-176380714D01*
X146796000Y-176618809D02*
X147510285Y-176856904D01*
X147510285Y-176856904D02*
X147510285Y-176237857D01*
%TO.C,U6*%
X188484095Y-148332619D02*
X188484095Y-149142142D01*
X188484095Y-149142142D02*
X188531714Y-149237380D01*
X188531714Y-149237380D02*
X188579333Y-149285000D01*
X188579333Y-149285000D02*
X188674571Y-149332619D01*
X188674571Y-149332619D02*
X188865047Y-149332619D01*
X188865047Y-149332619D02*
X188960285Y-149285000D01*
X188960285Y-149285000D02*
X189007904Y-149237380D01*
X189007904Y-149237380D02*
X189055523Y-149142142D01*
X189055523Y-149142142D02*
X189055523Y-148332619D01*
X189960285Y-148332619D02*
X189769809Y-148332619D01*
X189769809Y-148332619D02*
X189674571Y-148380238D01*
X189674571Y-148380238D02*
X189626952Y-148427857D01*
X189626952Y-148427857D02*
X189531714Y-148570714D01*
X189531714Y-148570714D02*
X189484095Y-148761190D01*
X189484095Y-148761190D02*
X189484095Y-149142142D01*
X189484095Y-149142142D02*
X189531714Y-149237380D01*
X189531714Y-149237380D02*
X189579333Y-149285000D01*
X189579333Y-149285000D02*
X189674571Y-149332619D01*
X189674571Y-149332619D02*
X189865047Y-149332619D01*
X189865047Y-149332619D02*
X189960285Y-149285000D01*
X189960285Y-149285000D02*
X190007904Y-149237380D01*
X190007904Y-149237380D02*
X190055523Y-149142142D01*
X190055523Y-149142142D02*
X190055523Y-148904047D01*
X190055523Y-148904047D02*
X190007904Y-148808809D01*
X190007904Y-148808809D02*
X189960285Y-148761190D01*
X189960285Y-148761190D02*
X189865047Y-148713571D01*
X189865047Y-148713571D02*
X189674571Y-148713571D01*
X189674571Y-148713571D02*
X189579333Y-148761190D01*
X189579333Y-148761190D02*
X189531714Y-148808809D01*
X189531714Y-148808809D02*
X189484095Y-148904047D01*
%TO.C,R34*%
X188078096Y-227440619D02*
X187744763Y-226964428D01*
X187506668Y-227440619D02*
X187506668Y-226440619D01*
X187506668Y-226440619D02*
X187887620Y-226440619D01*
X187887620Y-226440619D02*
X187982858Y-226488238D01*
X187982858Y-226488238D02*
X188030477Y-226535857D01*
X188030477Y-226535857D02*
X188078096Y-226631095D01*
X188078096Y-226631095D02*
X188078096Y-226773952D01*
X188078096Y-226773952D02*
X188030477Y-226869190D01*
X188030477Y-226869190D02*
X187982858Y-226916809D01*
X187982858Y-226916809D02*
X187887620Y-226964428D01*
X187887620Y-226964428D02*
X187506668Y-226964428D01*
X188411430Y-226440619D02*
X189030477Y-226440619D01*
X189030477Y-226440619D02*
X188697144Y-226821571D01*
X188697144Y-226821571D02*
X188840001Y-226821571D01*
X188840001Y-226821571D02*
X188935239Y-226869190D01*
X188935239Y-226869190D02*
X188982858Y-226916809D01*
X188982858Y-226916809D02*
X189030477Y-227012047D01*
X189030477Y-227012047D02*
X189030477Y-227250142D01*
X189030477Y-227250142D02*
X188982858Y-227345380D01*
X188982858Y-227345380D02*
X188935239Y-227393000D01*
X188935239Y-227393000D02*
X188840001Y-227440619D01*
X188840001Y-227440619D02*
X188554287Y-227440619D01*
X188554287Y-227440619D02*
X188459049Y-227393000D01*
X188459049Y-227393000D02*
X188411430Y-227345380D01*
X189887620Y-226773952D02*
X189887620Y-227440619D01*
X189649525Y-226393000D02*
X189411430Y-227107285D01*
X189411430Y-227107285D02*
X190030477Y-227107285D01*
%TO.C,R21*%
X148046342Y-207385619D02*
X147713009Y-206909428D01*
X147474914Y-207385619D02*
X147474914Y-206385619D01*
X147474914Y-206385619D02*
X147855866Y-206385619D01*
X147855866Y-206385619D02*
X147951104Y-206433238D01*
X147951104Y-206433238D02*
X147998723Y-206480857D01*
X147998723Y-206480857D02*
X148046342Y-206576095D01*
X148046342Y-206576095D02*
X148046342Y-206718952D01*
X148046342Y-206718952D02*
X147998723Y-206814190D01*
X147998723Y-206814190D02*
X147951104Y-206861809D01*
X147951104Y-206861809D02*
X147855866Y-206909428D01*
X147855866Y-206909428D02*
X147474914Y-206909428D01*
X148427295Y-206480857D02*
X148474914Y-206433238D01*
X148474914Y-206433238D02*
X148570152Y-206385619D01*
X148570152Y-206385619D02*
X148808247Y-206385619D01*
X148808247Y-206385619D02*
X148903485Y-206433238D01*
X148903485Y-206433238D02*
X148951104Y-206480857D01*
X148951104Y-206480857D02*
X148998723Y-206576095D01*
X148998723Y-206576095D02*
X148998723Y-206671333D01*
X148998723Y-206671333D02*
X148951104Y-206814190D01*
X148951104Y-206814190D02*
X148379676Y-207385619D01*
X148379676Y-207385619D02*
X148998723Y-207385619D01*
X149951104Y-207385619D02*
X149379676Y-207385619D01*
X149665390Y-207385619D02*
X149665390Y-206385619D01*
X149665390Y-206385619D02*
X149570152Y-206528476D01*
X149570152Y-206528476D02*
X149474914Y-206623714D01*
X149474914Y-206623714D02*
X149379676Y-206671333D01*
%TO.C,R35*%
X188101142Y-229980619D02*
X187767809Y-229504428D01*
X187529714Y-229980619D02*
X187529714Y-228980619D01*
X187529714Y-228980619D02*
X187910666Y-228980619D01*
X187910666Y-228980619D02*
X188005904Y-229028238D01*
X188005904Y-229028238D02*
X188053523Y-229075857D01*
X188053523Y-229075857D02*
X188101142Y-229171095D01*
X188101142Y-229171095D02*
X188101142Y-229313952D01*
X188101142Y-229313952D02*
X188053523Y-229409190D01*
X188053523Y-229409190D02*
X188005904Y-229456809D01*
X188005904Y-229456809D02*
X187910666Y-229504428D01*
X187910666Y-229504428D02*
X187529714Y-229504428D01*
X188434476Y-228980619D02*
X189053523Y-228980619D01*
X189053523Y-228980619D02*
X188720190Y-229361571D01*
X188720190Y-229361571D02*
X188863047Y-229361571D01*
X188863047Y-229361571D02*
X188958285Y-229409190D01*
X188958285Y-229409190D02*
X189005904Y-229456809D01*
X189005904Y-229456809D02*
X189053523Y-229552047D01*
X189053523Y-229552047D02*
X189053523Y-229790142D01*
X189053523Y-229790142D02*
X189005904Y-229885380D01*
X189005904Y-229885380D02*
X188958285Y-229933000D01*
X188958285Y-229933000D02*
X188863047Y-229980619D01*
X188863047Y-229980619D02*
X188577333Y-229980619D01*
X188577333Y-229980619D02*
X188482095Y-229933000D01*
X188482095Y-229933000D02*
X188434476Y-229885380D01*
X189958285Y-228980619D02*
X189482095Y-228980619D01*
X189482095Y-228980619D02*
X189434476Y-229456809D01*
X189434476Y-229456809D02*
X189482095Y-229409190D01*
X189482095Y-229409190D02*
X189577333Y-229361571D01*
X189577333Y-229361571D02*
X189815428Y-229361571D01*
X189815428Y-229361571D02*
X189910666Y-229409190D01*
X189910666Y-229409190D02*
X189958285Y-229456809D01*
X189958285Y-229456809D02*
X190005904Y-229552047D01*
X190005904Y-229552047D02*
X190005904Y-229790142D01*
X190005904Y-229790142D02*
X189958285Y-229885380D01*
X189958285Y-229885380D02*
X189910666Y-229933000D01*
X189910666Y-229933000D02*
X189815428Y-229980619D01*
X189815428Y-229980619D02*
X189577333Y-229980619D01*
X189577333Y-229980619D02*
X189482095Y-229933000D01*
X189482095Y-229933000D02*
X189434476Y-229885380D01*
%TO.C,C39*%
X179211142Y-247345380D02*
X179163523Y-247393000D01*
X179163523Y-247393000D02*
X179020666Y-247440619D01*
X179020666Y-247440619D02*
X178925428Y-247440619D01*
X178925428Y-247440619D02*
X178782571Y-247393000D01*
X178782571Y-247393000D02*
X178687333Y-247297761D01*
X178687333Y-247297761D02*
X178639714Y-247202523D01*
X178639714Y-247202523D02*
X178592095Y-247012047D01*
X178592095Y-247012047D02*
X178592095Y-246869190D01*
X178592095Y-246869190D02*
X178639714Y-246678714D01*
X178639714Y-246678714D02*
X178687333Y-246583476D01*
X178687333Y-246583476D02*
X178782571Y-246488238D01*
X178782571Y-246488238D02*
X178925428Y-246440619D01*
X178925428Y-246440619D02*
X179020666Y-246440619D01*
X179020666Y-246440619D02*
X179163523Y-246488238D01*
X179163523Y-246488238D02*
X179211142Y-246535857D01*
X179544476Y-246440619D02*
X180163523Y-246440619D01*
X180163523Y-246440619D02*
X179830190Y-246821571D01*
X179830190Y-246821571D02*
X179973047Y-246821571D01*
X179973047Y-246821571D02*
X180068285Y-246869190D01*
X180068285Y-246869190D02*
X180115904Y-246916809D01*
X180115904Y-246916809D02*
X180163523Y-247012047D01*
X180163523Y-247012047D02*
X180163523Y-247250142D01*
X180163523Y-247250142D02*
X180115904Y-247345380D01*
X180115904Y-247345380D02*
X180068285Y-247393000D01*
X180068285Y-247393000D02*
X179973047Y-247440619D01*
X179973047Y-247440619D02*
X179687333Y-247440619D01*
X179687333Y-247440619D02*
X179592095Y-247393000D01*
X179592095Y-247393000D02*
X179544476Y-247345380D01*
X180639714Y-247440619D02*
X180830190Y-247440619D01*
X180830190Y-247440619D02*
X180925428Y-247393000D01*
X180925428Y-247393000D02*
X180973047Y-247345380D01*
X180973047Y-247345380D02*
X181068285Y-247202523D01*
X181068285Y-247202523D02*
X181115904Y-247012047D01*
X181115904Y-247012047D02*
X181115904Y-246631095D01*
X181115904Y-246631095D02*
X181068285Y-246535857D01*
X181068285Y-246535857D02*
X181020666Y-246488238D01*
X181020666Y-246488238D02*
X180925428Y-246440619D01*
X180925428Y-246440619D02*
X180734952Y-246440619D01*
X180734952Y-246440619D02*
X180639714Y-246488238D01*
X180639714Y-246488238D02*
X180592095Y-246535857D01*
X180592095Y-246535857D02*
X180544476Y-246631095D01*
X180544476Y-246631095D02*
X180544476Y-246869190D01*
X180544476Y-246869190D02*
X180592095Y-246964428D01*
X180592095Y-246964428D02*
X180639714Y-247012047D01*
X180639714Y-247012047D02*
X180734952Y-247059666D01*
X180734952Y-247059666D02*
X180925428Y-247059666D01*
X180925428Y-247059666D02*
X181020666Y-247012047D01*
X181020666Y-247012047D02*
X181068285Y-246964428D01*
X181068285Y-246964428D02*
X181115904Y-246869190D01*
%TO.C,C25*%
X159211142Y-207345380D02*
X159163523Y-207393000D01*
X159163523Y-207393000D02*
X159020666Y-207440619D01*
X159020666Y-207440619D02*
X158925428Y-207440619D01*
X158925428Y-207440619D02*
X158782571Y-207393000D01*
X158782571Y-207393000D02*
X158687333Y-207297761D01*
X158687333Y-207297761D02*
X158639714Y-207202523D01*
X158639714Y-207202523D02*
X158592095Y-207012047D01*
X158592095Y-207012047D02*
X158592095Y-206869190D01*
X158592095Y-206869190D02*
X158639714Y-206678714D01*
X158639714Y-206678714D02*
X158687333Y-206583476D01*
X158687333Y-206583476D02*
X158782571Y-206488238D01*
X158782571Y-206488238D02*
X158925428Y-206440619D01*
X158925428Y-206440619D02*
X159020666Y-206440619D01*
X159020666Y-206440619D02*
X159163523Y-206488238D01*
X159163523Y-206488238D02*
X159211142Y-206535857D01*
X159592095Y-206535857D02*
X159639714Y-206488238D01*
X159639714Y-206488238D02*
X159734952Y-206440619D01*
X159734952Y-206440619D02*
X159973047Y-206440619D01*
X159973047Y-206440619D02*
X160068285Y-206488238D01*
X160068285Y-206488238D02*
X160115904Y-206535857D01*
X160115904Y-206535857D02*
X160163523Y-206631095D01*
X160163523Y-206631095D02*
X160163523Y-206726333D01*
X160163523Y-206726333D02*
X160115904Y-206869190D01*
X160115904Y-206869190D02*
X159544476Y-207440619D01*
X159544476Y-207440619D02*
X160163523Y-207440619D01*
X161068285Y-206440619D02*
X160592095Y-206440619D01*
X160592095Y-206440619D02*
X160544476Y-206916809D01*
X160544476Y-206916809D02*
X160592095Y-206869190D01*
X160592095Y-206869190D02*
X160687333Y-206821571D01*
X160687333Y-206821571D02*
X160925428Y-206821571D01*
X160925428Y-206821571D02*
X161020666Y-206869190D01*
X161020666Y-206869190D02*
X161068285Y-206916809D01*
X161068285Y-206916809D02*
X161115904Y-207012047D01*
X161115904Y-207012047D02*
X161115904Y-207250142D01*
X161115904Y-207250142D02*
X161068285Y-207345380D01*
X161068285Y-207345380D02*
X161020666Y-207393000D01*
X161020666Y-207393000D02*
X160925428Y-207440619D01*
X160925428Y-207440619D02*
X160687333Y-207440619D01*
X160687333Y-207440619D02*
X160592095Y-207393000D01*
X160592095Y-207393000D02*
X160544476Y-207345380D01*
%TO.C,C24*%
X139211142Y-207345380D02*
X139163523Y-207393000D01*
X139163523Y-207393000D02*
X139020666Y-207440619D01*
X139020666Y-207440619D02*
X138925428Y-207440619D01*
X138925428Y-207440619D02*
X138782571Y-207393000D01*
X138782571Y-207393000D02*
X138687333Y-207297761D01*
X138687333Y-207297761D02*
X138639714Y-207202523D01*
X138639714Y-207202523D02*
X138592095Y-207012047D01*
X138592095Y-207012047D02*
X138592095Y-206869190D01*
X138592095Y-206869190D02*
X138639714Y-206678714D01*
X138639714Y-206678714D02*
X138687333Y-206583476D01*
X138687333Y-206583476D02*
X138782571Y-206488238D01*
X138782571Y-206488238D02*
X138925428Y-206440619D01*
X138925428Y-206440619D02*
X139020666Y-206440619D01*
X139020666Y-206440619D02*
X139163523Y-206488238D01*
X139163523Y-206488238D02*
X139211142Y-206535857D01*
X139592095Y-206535857D02*
X139639714Y-206488238D01*
X139639714Y-206488238D02*
X139734952Y-206440619D01*
X139734952Y-206440619D02*
X139973047Y-206440619D01*
X139973047Y-206440619D02*
X140068285Y-206488238D01*
X140068285Y-206488238D02*
X140115904Y-206535857D01*
X140115904Y-206535857D02*
X140163523Y-206631095D01*
X140163523Y-206631095D02*
X140163523Y-206726333D01*
X140163523Y-206726333D02*
X140115904Y-206869190D01*
X140115904Y-206869190D02*
X139544476Y-207440619D01*
X139544476Y-207440619D02*
X140163523Y-207440619D01*
X141020666Y-206773952D02*
X141020666Y-207440619D01*
X140782571Y-206393000D02*
X140544476Y-207107285D01*
X140544476Y-207107285D02*
X141163523Y-207107285D01*
%TO.C,C31*%
X91602180Y-173002457D02*
X91649800Y-173050076D01*
X91649800Y-173050076D02*
X91697419Y-173192933D01*
X91697419Y-173192933D02*
X91697419Y-173288171D01*
X91697419Y-173288171D02*
X91649800Y-173431028D01*
X91649800Y-173431028D02*
X91554561Y-173526266D01*
X91554561Y-173526266D02*
X91459323Y-173573885D01*
X91459323Y-173573885D02*
X91268847Y-173621504D01*
X91268847Y-173621504D02*
X91125990Y-173621504D01*
X91125990Y-173621504D02*
X90935514Y-173573885D01*
X90935514Y-173573885D02*
X90840276Y-173526266D01*
X90840276Y-173526266D02*
X90745038Y-173431028D01*
X90745038Y-173431028D02*
X90697419Y-173288171D01*
X90697419Y-173288171D02*
X90697419Y-173192933D01*
X90697419Y-173192933D02*
X90745038Y-173050076D01*
X90745038Y-173050076D02*
X90792657Y-173002457D01*
X90697419Y-172669123D02*
X90697419Y-172050076D01*
X90697419Y-172050076D02*
X91078371Y-172383409D01*
X91078371Y-172383409D02*
X91078371Y-172240552D01*
X91078371Y-172240552D02*
X91125990Y-172145314D01*
X91125990Y-172145314D02*
X91173609Y-172097695D01*
X91173609Y-172097695D02*
X91268847Y-172050076D01*
X91268847Y-172050076D02*
X91506942Y-172050076D01*
X91506942Y-172050076D02*
X91602180Y-172097695D01*
X91602180Y-172097695D02*
X91649800Y-172145314D01*
X91649800Y-172145314D02*
X91697419Y-172240552D01*
X91697419Y-172240552D02*
X91697419Y-172526266D01*
X91697419Y-172526266D02*
X91649800Y-172621504D01*
X91649800Y-172621504D02*
X91602180Y-172669123D01*
X91697419Y-171097695D02*
X91697419Y-171669123D01*
X91697419Y-171383409D02*
X90697419Y-171383409D01*
X90697419Y-171383409D02*
X90840276Y-171478647D01*
X90840276Y-171478647D02*
X90935514Y-171573885D01*
X90935514Y-171573885D02*
X90983133Y-171669123D01*
%TO.C,R39*%
X168139096Y-247440619D02*
X167805763Y-246964428D01*
X167567668Y-247440619D02*
X167567668Y-246440619D01*
X167567668Y-246440619D02*
X167948620Y-246440619D01*
X167948620Y-246440619D02*
X168043858Y-246488238D01*
X168043858Y-246488238D02*
X168091477Y-246535857D01*
X168091477Y-246535857D02*
X168139096Y-246631095D01*
X168139096Y-246631095D02*
X168139096Y-246773952D01*
X168139096Y-246773952D02*
X168091477Y-246869190D01*
X168091477Y-246869190D02*
X168043858Y-246916809D01*
X168043858Y-246916809D02*
X167948620Y-246964428D01*
X167948620Y-246964428D02*
X167567668Y-246964428D01*
X168472430Y-246440619D02*
X169091477Y-246440619D01*
X169091477Y-246440619D02*
X168758144Y-246821571D01*
X168758144Y-246821571D02*
X168901001Y-246821571D01*
X168901001Y-246821571D02*
X168996239Y-246869190D01*
X168996239Y-246869190D02*
X169043858Y-246916809D01*
X169043858Y-246916809D02*
X169091477Y-247012047D01*
X169091477Y-247012047D02*
X169091477Y-247250142D01*
X169091477Y-247250142D02*
X169043858Y-247345380D01*
X169043858Y-247345380D02*
X168996239Y-247393000D01*
X168996239Y-247393000D02*
X168901001Y-247440619D01*
X168901001Y-247440619D02*
X168615287Y-247440619D01*
X168615287Y-247440619D02*
X168520049Y-247393000D01*
X168520049Y-247393000D02*
X168472430Y-247345380D01*
X169567668Y-247440619D02*
X169758144Y-247440619D01*
X169758144Y-247440619D02*
X169853382Y-247393000D01*
X169853382Y-247393000D02*
X169901001Y-247345380D01*
X169901001Y-247345380D02*
X169996239Y-247202523D01*
X169996239Y-247202523D02*
X170043858Y-247012047D01*
X170043858Y-247012047D02*
X170043858Y-246631095D01*
X170043858Y-246631095D02*
X169996239Y-246535857D01*
X169996239Y-246535857D02*
X169948620Y-246488238D01*
X169948620Y-246488238D02*
X169853382Y-246440619D01*
X169853382Y-246440619D02*
X169662906Y-246440619D01*
X169662906Y-246440619D02*
X169567668Y-246488238D01*
X169567668Y-246488238D02*
X169520049Y-246535857D01*
X169520049Y-246535857D02*
X169472430Y-246631095D01*
X169472430Y-246631095D02*
X169472430Y-246869190D01*
X169472430Y-246869190D02*
X169520049Y-246964428D01*
X169520049Y-246964428D02*
X169567668Y-247012047D01*
X169567668Y-247012047D02*
X169662906Y-247059666D01*
X169662906Y-247059666D02*
X169853382Y-247059666D01*
X169853382Y-247059666D02*
X169948620Y-247012047D01*
X169948620Y-247012047D02*
X169996239Y-246964428D01*
X169996239Y-246964428D02*
X170043858Y-246869190D01*
%TO.C,R25*%
X188078096Y-207481670D02*
X187744763Y-207005479D01*
X187506668Y-207481670D02*
X187506668Y-206481670D01*
X187506668Y-206481670D02*
X187887620Y-206481670D01*
X187887620Y-206481670D02*
X187982858Y-206529289D01*
X187982858Y-206529289D02*
X188030477Y-206576908D01*
X188030477Y-206576908D02*
X188078096Y-206672146D01*
X188078096Y-206672146D02*
X188078096Y-206815003D01*
X188078096Y-206815003D02*
X188030477Y-206910241D01*
X188030477Y-206910241D02*
X187982858Y-206957860D01*
X187982858Y-206957860D02*
X187887620Y-207005479D01*
X187887620Y-207005479D02*
X187506668Y-207005479D01*
X188459049Y-206576908D02*
X188506668Y-206529289D01*
X188506668Y-206529289D02*
X188601906Y-206481670D01*
X188601906Y-206481670D02*
X188840001Y-206481670D01*
X188840001Y-206481670D02*
X188935239Y-206529289D01*
X188935239Y-206529289D02*
X188982858Y-206576908D01*
X188982858Y-206576908D02*
X189030477Y-206672146D01*
X189030477Y-206672146D02*
X189030477Y-206767384D01*
X189030477Y-206767384D02*
X188982858Y-206910241D01*
X188982858Y-206910241D02*
X188411430Y-207481670D01*
X188411430Y-207481670D02*
X189030477Y-207481670D01*
X189935239Y-206481670D02*
X189459049Y-206481670D01*
X189459049Y-206481670D02*
X189411430Y-206957860D01*
X189411430Y-206957860D02*
X189459049Y-206910241D01*
X189459049Y-206910241D02*
X189554287Y-206862622D01*
X189554287Y-206862622D02*
X189792382Y-206862622D01*
X189792382Y-206862622D02*
X189887620Y-206910241D01*
X189887620Y-206910241D02*
X189935239Y-206957860D01*
X189935239Y-206957860D02*
X189982858Y-207053098D01*
X189982858Y-207053098D02*
X189982858Y-207291193D01*
X189982858Y-207291193D02*
X189935239Y-207386431D01*
X189935239Y-207386431D02*
X189887620Y-207434051D01*
X189887620Y-207434051D02*
X189792382Y-207481670D01*
X189792382Y-207481670D02*
X189554287Y-207481670D01*
X189554287Y-207481670D02*
X189459049Y-207434051D01*
X189459049Y-207434051D02*
X189411430Y-207386431D01*
%TO.C,R30*%
X148073096Y-227440619D02*
X147739763Y-226964428D01*
X147501668Y-227440619D02*
X147501668Y-226440619D01*
X147501668Y-226440619D02*
X147882620Y-226440619D01*
X147882620Y-226440619D02*
X147977858Y-226488238D01*
X147977858Y-226488238D02*
X148025477Y-226535857D01*
X148025477Y-226535857D02*
X148073096Y-226631095D01*
X148073096Y-226631095D02*
X148073096Y-226773952D01*
X148073096Y-226773952D02*
X148025477Y-226869190D01*
X148025477Y-226869190D02*
X147977858Y-226916809D01*
X147977858Y-226916809D02*
X147882620Y-226964428D01*
X147882620Y-226964428D02*
X147501668Y-226964428D01*
X148406430Y-226440619D02*
X149025477Y-226440619D01*
X149025477Y-226440619D02*
X148692144Y-226821571D01*
X148692144Y-226821571D02*
X148835001Y-226821571D01*
X148835001Y-226821571D02*
X148930239Y-226869190D01*
X148930239Y-226869190D02*
X148977858Y-226916809D01*
X148977858Y-226916809D02*
X149025477Y-227012047D01*
X149025477Y-227012047D02*
X149025477Y-227250142D01*
X149025477Y-227250142D02*
X148977858Y-227345380D01*
X148977858Y-227345380D02*
X148930239Y-227393000D01*
X148930239Y-227393000D02*
X148835001Y-227440619D01*
X148835001Y-227440619D02*
X148549287Y-227440619D01*
X148549287Y-227440619D02*
X148454049Y-227393000D01*
X148454049Y-227393000D02*
X148406430Y-227345380D01*
X149644525Y-226440619D02*
X149739763Y-226440619D01*
X149739763Y-226440619D02*
X149835001Y-226488238D01*
X149835001Y-226488238D02*
X149882620Y-226535857D01*
X149882620Y-226535857D02*
X149930239Y-226631095D01*
X149930239Y-226631095D02*
X149977858Y-226821571D01*
X149977858Y-226821571D02*
X149977858Y-227059666D01*
X149977858Y-227059666D02*
X149930239Y-227250142D01*
X149930239Y-227250142D02*
X149882620Y-227345380D01*
X149882620Y-227345380D02*
X149835001Y-227393000D01*
X149835001Y-227393000D02*
X149739763Y-227440619D01*
X149739763Y-227440619D02*
X149644525Y-227440619D01*
X149644525Y-227440619D02*
X149549287Y-227393000D01*
X149549287Y-227393000D02*
X149501668Y-227345380D01*
X149501668Y-227345380D02*
X149454049Y-227250142D01*
X149454049Y-227250142D02*
X149406430Y-227059666D01*
X149406430Y-227059666D02*
X149406430Y-226821571D01*
X149406430Y-226821571D02*
X149454049Y-226631095D01*
X149454049Y-226631095D02*
X149501668Y-226535857D01*
X149501668Y-226535857D02*
X149549287Y-226488238D01*
X149549287Y-226488238D02*
X149644525Y-226440619D01*
%TO.C,C3*%
X140207026Y-147429462D02*
X140254646Y-147477081D01*
X140254646Y-147477081D02*
X140302265Y-147619938D01*
X140302265Y-147619938D02*
X140302265Y-147715176D01*
X140302265Y-147715176D02*
X140254646Y-147858033D01*
X140254646Y-147858033D02*
X140159407Y-147953271D01*
X140159407Y-147953271D02*
X140064169Y-148000890D01*
X140064169Y-148000890D02*
X139873693Y-148048509D01*
X139873693Y-148048509D02*
X139730836Y-148048509D01*
X139730836Y-148048509D02*
X139540360Y-148000890D01*
X139540360Y-148000890D02*
X139445122Y-147953271D01*
X139445122Y-147953271D02*
X139349884Y-147858033D01*
X139349884Y-147858033D02*
X139302265Y-147715176D01*
X139302265Y-147715176D02*
X139302265Y-147619938D01*
X139302265Y-147619938D02*
X139349884Y-147477081D01*
X139349884Y-147477081D02*
X139397503Y-147429462D01*
X139302265Y-147096128D02*
X139302265Y-146477081D01*
X139302265Y-146477081D02*
X139683217Y-146810414D01*
X139683217Y-146810414D02*
X139683217Y-146667557D01*
X139683217Y-146667557D02*
X139730836Y-146572319D01*
X139730836Y-146572319D02*
X139778455Y-146524700D01*
X139778455Y-146524700D02*
X139873693Y-146477081D01*
X139873693Y-146477081D02*
X140111788Y-146477081D01*
X140111788Y-146477081D02*
X140207026Y-146524700D01*
X140207026Y-146524700D02*
X140254646Y-146572319D01*
X140254646Y-146572319D02*
X140302265Y-146667557D01*
X140302265Y-146667557D02*
X140302265Y-146953271D01*
X140302265Y-146953271D02*
X140254646Y-147048509D01*
X140254646Y-147048509D02*
X140207026Y-147096128D01*
%TO.C,C38*%
X159211142Y-247345380D02*
X159163523Y-247393000D01*
X159163523Y-247393000D02*
X159020666Y-247440619D01*
X159020666Y-247440619D02*
X158925428Y-247440619D01*
X158925428Y-247440619D02*
X158782571Y-247393000D01*
X158782571Y-247393000D02*
X158687333Y-247297761D01*
X158687333Y-247297761D02*
X158639714Y-247202523D01*
X158639714Y-247202523D02*
X158592095Y-247012047D01*
X158592095Y-247012047D02*
X158592095Y-246869190D01*
X158592095Y-246869190D02*
X158639714Y-246678714D01*
X158639714Y-246678714D02*
X158687333Y-246583476D01*
X158687333Y-246583476D02*
X158782571Y-246488238D01*
X158782571Y-246488238D02*
X158925428Y-246440619D01*
X158925428Y-246440619D02*
X159020666Y-246440619D01*
X159020666Y-246440619D02*
X159163523Y-246488238D01*
X159163523Y-246488238D02*
X159211142Y-246535857D01*
X159544476Y-246440619D02*
X160163523Y-246440619D01*
X160163523Y-246440619D02*
X159830190Y-246821571D01*
X159830190Y-246821571D02*
X159973047Y-246821571D01*
X159973047Y-246821571D02*
X160068285Y-246869190D01*
X160068285Y-246869190D02*
X160115904Y-246916809D01*
X160115904Y-246916809D02*
X160163523Y-247012047D01*
X160163523Y-247012047D02*
X160163523Y-247250142D01*
X160163523Y-247250142D02*
X160115904Y-247345380D01*
X160115904Y-247345380D02*
X160068285Y-247393000D01*
X160068285Y-247393000D02*
X159973047Y-247440619D01*
X159973047Y-247440619D02*
X159687333Y-247440619D01*
X159687333Y-247440619D02*
X159592095Y-247393000D01*
X159592095Y-247393000D02*
X159544476Y-247345380D01*
X160734952Y-246869190D02*
X160639714Y-246821571D01*
X160639714Y-246821571D02*
X160592095Y-246773952D01*
X160592095Y-246773952D02*
X160544476Y-246678714D01*
X160544476Y-246678714D02*
X160544476Y-246631095D01*
X160544476Y-246631095D02*
X160592095Y-246535857D01*
X160592095Y-246535857D02*
X160639714Y-246488238D01*
X160639714Y-246488238D02*
X160734952Y-246440619D01*
X160734952Y-246440619D02*
X160925428Y-246440619D01*
X160925428Y-246440619D02*
X161020666Y-246488238D01*
X161020666Y-246488238D02*
X161068285Y-246535857D01*
X161068285Y-246535857D02*
X161115904Y-246631095D01*
X161115904Y-246631095D02*
X161115904Y-246678714D01*
X161115904Y-246678714D02*
X161068285Y-246773952D01*
X161068285Y-246773952D02*
X161020666Y-246821571D01*
X161020666Y-246821571D02*
X160925428Y-246869190D01*
X160925428Y-246869190D02*
X160734952Y-246869190D01*
X160734952Y-246869190D02*
X160639714Y-246916809D01*
X160639714Y-246916809D02*
X160592095Y-246964428D01*
X160592095Y-246964428D02*
X160544476Y-247059666D01*
X160544476Y-247059666D02*
X160544476Y-247250142D01*
X160544476Y-247250142D02*
X160592095Y-247345380D01*
X160592095Y-247345380D02*
X160639714Y-247393000D01*
X160639714Y-247393000D02*
X160734952Y-247440619D01*
X160734952Y-247440619D02*
X160925428Y-247440619D01*
X160925428Y-247440619D02*
X161020666Y-247393000D01*
X161020666Y-247393000D02*
X161068285Y-247345380D01*
X161068285Y-247345380D02*
X161115904Y-247250142D01*
X161115904Y-247250142D02*
X161115904Y-247059666D01*
X161115904Y-247059666D02*
X161068285Y-246964428D01*
X161068285Y-246964428D02*
X161020666Y-246916809D01*
X161020666Y-246916809D02*
X160925428Y-246869190D01*
%TO.C,C26*%
X179211142Y-207345380D02*
X179163523Y-207393000D01*
X179163523Y-207393000D02*
X179020666Y-207440619D01*
X179020666Y-207440619D02*
X178925428Y-207440619D01*
X178925428Y-207440619D02*
X178782571Y-207393000D01*
X178782571Y-207393000D02*
X178687333Y-207297761D01*
X178687333Y-207297761D02*
X178639714Y-207202523D01*
X178639714Y-207202523D02*
X178592095Y-207012047D01*
X178592095Y-207012047D02*
X178592095Y-206869190D01*
X178592095Y-206869190D02*
X178639714Y-206678714D01*
X178639714Y-206678714D02*
X178687333Y-206583476D01*
X178687333Y-206583476D02*
X178782571Y-206488238D01*
X178782571Y-206488238D02*
X178925428Y-206440619D01*
X178925428Y-206440619D02*
X179020666Y-206440619D01*
X179020666Y-206440619D02*
X179163523Y-206488238D01*
X179163523Y-206488238D02*
X179211142Y-206535857D01*
X179592095Y-206535857D02*
X179639714Y-206488238D01*
X179639714Y-206488238D02*
X179734952Y-206440619D01*
X179734952Y-206440619D02*
X179973047Y-206440619D01*
X179973047Y-206440619D02*
X180068285Y-206488238D01*
X180068285Y-206488238D02*
X180115904Y-206535857D01*
X180115904Y-206535857D02*
X180163523Y-206631095D01*
X180163523Y-206631095D02*
X180163523Y-206726333D01*
X180163523Y-206726333D02*
X180115904Y-206869190D01*
X180115904Y-206869190D02*
X179544476Y-207440619D01*
X179544476Y-207440619D02*
X180163523Y-207440619D01*
X181020666Y-206440619D02*
X180830190Y-206440619D01*
X180830190Y-206440619D02*
X180734952Y-206488238D01*
X180734952Y-206488238D02*
X180687333Y-206535857D01*
X180687333Y-206535857D02*
X180592095Y-206678714D01*
X180592095Y-206678714D02*
X180544476Y-206869190D01*
X180544476Y-206869190D02*
X180544476Y-207250142D01*
X180544476Y-207250142D02*
X180592095Y-207345380D01*
X180592095Y-207345380D02*
X180639714Y-207393000D01*
X180639714Y-207393000D02*
X180734952Y-207440619D01*
X180734952Y-207440619D02*
X180925428Y-207440619D01*
X180925428Y-207440619D02*
X181020666Y-207393000D01*
X181020666Y-207393000D02*
X181068285Y-207345380D01*
X181068285Y-207345380D02*
X181115904Y-207250142D01*
X181115904Y-207250142D02*
X181115904Y-207012047D01*
X181115904Y-207012047D02*
X181068285Y-206916809D01*
X181068285Y-206916809D02*
X181020666Y-206869190D01*
X181020666Y-206869190D02*
X180925428Y-206821571D01*
X180925428Y-206821571D02*
X180734952Y-206821571D01*
X180734952Y-206821571D02*
X180639714Y-206869190D01*
X180639714Y-206869190D02*
X180592095Y-206916809D01*
X180592095Y-206916809D02*
X180544476Y-207012047D01*
%TO.C,C27*%
X139211142Y-227345380D02*
X139163523Y-227393000D01*
X139163523Y-227393000D02*
X139020666Y-227440619D01*
X139020666Y-227440619D02*
X138925428Y-227440619D01*
X138925428Y-227440619D02*
X138782571Y-227393000D01*
X138782571Y-227393000D02*
X138687333Y-227297761D01*
X138687333Y-227297761D02*
X138639714Y-227202523D01*
X138639714Y-227202523D02*
X138592095Y-227012047D01*
X138592095Y-227012047D02*
X138592095Y-226869190D01*
X138592095Y-226869190D02*
X138639714Y-226678714D01*
X138639714Y-226678714D02*
X138687333Y-226583476D01*
X138687333Y-226583476D02*
X138782571Y-226488238D01*
X138782571Y-226488238D02*
X138925428Y-226440619D01*
X138925428Y-226440619D02*
X139020666Y-226440619D01*
X139020666Y-226440619D02*
X139163523Y-226488238D01*
X139163523Y-226488238D02*
X139211142Y-226535857D01*
X139592095Y-226535857D02*
X139639714Y-226488238D01*
X139639714Y-226488238D02*
X139734952Y-226440619D01*
X139734952Y-226440619D02*
X139973047Y-226440619D01*
X139973047Y-226440619D02*
X140068285Y-226488238D01*
X140068285Y-226488238D02*
X140115904Y-226535857D01*
X140115904Y-226535857D02*
X140163523Y-226631095D01*
X140163523Y-226631095D02*
X140163523Y-226726333D01*
X140163523Y-226726333D02*
X140115904Y-226869190D01*
X140115904Y-226869190D02*
X139544476Y-227440619D01*
X139544476Y-227440619D02*
X140163523Y-227440619D01*
X140496857Y-226440619D02*
X141163523Y-226440619D01*
X141163523Y-226440619D02*
X140734952Y-227440619D01*
%TO.C,R24*%
X168101142Y-209980619D02*
X167767809Y-209504428D01*
X167529714Y-209980619D02*
X167529714Y-208980619D01*
X167529714Y-208980619D02*
X167910666Y-208980619D01*
X167910666Y-208980619D02*
X168005904Y-209028238D01*
X168005904Y-209028238D02*
X168053523Y-209075857D01*
X168053523Y-209075857D02*
X168101142Y-209171095D01*
X168101142Y-209171095D02*
X168101142Y-209313952D01*
X168101142Y-209313952D02*
X168053523Y-209409190D01*
X168053523Y-209409190D02*
X168005904Y-209456809D01*
X168005904Y-209456809D02*
X167910666Y-209504428D01*
X167910666Y-209504428D02*
X167529714Y-209504428D01*
X168482095Y-209075857D02*
X168529714Y-209028238D01*
X168529714Y-209028238D02*
X168624952Y-208980619D01*
X168624952Y-208980619D02*
X168863047Y-208980619D01*
X168863047Y-208980619D02*
X168958285Y-209028238D01*
X168958285Y-209028238D02*
X169005904Y-209075857D01*
X169005904Y-209075857D02*
X169053523Y-209171095D01*
X169053523Y-209171095D02*
X169053523Y-209266333D01*
X169053523Y-209266333D02*
X169005904Y-209409190D01*
X169005904Y-209409190D02*
X168434476Y-209980619D01*
X168434476Y-209980619D02*
X169053523Y-209980619D01*
X169910666Y-209313952D02*
X169910666Y-209980619D01*
X169672571Y-208933000D02*
X169434476Y-209647285D01*
X169434476Y-209647285D02*
X170053523Y-209647285D01*
%TO.C,C37*%
X139211142Y-247345380D02*
X139163523Y-247393000D01*
X139163523Y-247393000D02*
X139020666Y-247440619D01*
X139020666Y-247440619D02*
X138925428Y-247440619D01*
X138925428Y-247440619D02*
X138782571Y-247393000D01*
X138782571Y-247393000D02*
X138687333Y-247297761D01*
X138687333Y-247297761D02*
X138639714Y-247202523D01*
X138639714Y-247202523D02*
X138592095Y-247012047D01*
X138592095Y-247012047D02*
X138592095Y-246869190D01*
X138592095Y-246869190D02*
X138639714Y-246678714D01*
X138639714Y-246678714D02*
X138687333Y-246583476D01*
X138687333Y-246583476D02*
X138782571Y-246488238D01*
X138782571Y-246488238D02*
X138925428Y-246440619D01*
X138925428Y-246440619D02*
X139020666Y-246440619D01*
X139020666Y-246440619D02*
X139163523Y-246488238D01*
X139163523Y-246488238D02*
X139211142Y-246535857D01*
X139544476Y-246440619D02*
X140163523Y-246440619D01*
X140163523Y-246440619D02*
X139830190Y-246821571D01*
X139830190Y-246821571D02*
X139973047Y-246821571D01*
X139973047Y-246821571D02*
X140068285Y-246869190D01*
X140068285Y-246869190D02*
X140115904Y-246916809D01*
X140115904Y-246916809D02*
X140163523Y-247012047D01*
X140163523Y-247012047D02*
X140163523Y-247250142D01*
X140163523Y-247250142D02*
X140115904Y-247345380D01*
X140115904Y-247345380D02*
X140068285Y-247393000D01*
X140068285Y-247393000D02*
X139973047Y-247440619D01*
X139973047Y-247440619D02*
X139687333Y-247440619D01*
X139687333Y-247440619D02*
X139592095Y-247393000D01*
X139592095Y-247393000D02*
X139544476Y-247345380D01*
X140496857Y-246440619D02*
X141163523Y-246440619D01*
X141163523Y-246440619D02*
X140734952Y-247440619D01*
%TO.C,R31*%
X148101142Y-229980619D02*
X147767809Y-229504428D01*
X147529714Y-229980619D02*
X147529714Y-228980619D01*
X147529714Y-228980619D02*
X147910666Y-228980619D01*
X147910666Y-228980619D02*
X148005904Y-229028238D01*
X148005904Y-229028238D02*
X148053523Y-229075857D01*
X148053523Y-229075857D02*
X148101142Y-229171095D01*
X148101142Y-229171095D02*
X148101142Y-229313952D01*
X148101142Y-229313952D02*
X148053523Y-229409190D01*
X148053523Y-229409190D02*
X148005904Y-229456809D01*
X148005904Y-229456809D02*
X147910666Y-229504428D01*
X147910666Y-229504428D02*
X147529714Y-229504428D01*
X148434476Y-228980619D02*
X149053523Y-228980619D01*
X149053523Y-228980619D02*
X148720190Y-229361571D01*
X148720190Y-229361571D02*
X148863047Y-229361571D01*
X148863047Y-229361571D02*
X148958285Y-229409190D01*
X148958285Y-229409190D02*
X149005904Y-229456809D01*
X149005904Y-229456809D02*
X149053523Y-229552047D01*
X149053523Y-229552047D02*
X149053523Y-229790142D01*
X149053523Y-229790142D02*
X149005904Y-229885380D01*
X149005904Y-229885380D02*
X148958285Y-229933000D01*
X148958285Y-229933000D02*
X148863047Y-229980619D01*
X148863047Y-229980619D02*
X148577333Y-229980619D01*
X148577333Y-229980619D02*
X148482095Y-229933000D01*
X148482095Y-229933000D02*
X148434476Y-229885380D01*
X150005904Y-229980619D02*
X149434476Y-229980619D01*
X149720190Y-229980619D02*
X149720190Y-228980619D01*
X149720190Y-228980619D02*
X149624952Y-229123476D01*
X149624952Y-229123476D02*
X149529714Y-229218714D01*
X149529714Y-229218714D02*
X149434476Y-229266333D01*
%TO.C,D1*%
X132682265Y-123150890D02*
X131682265Y-123150890D01*
X131682265Y-123150890D02*
X131682265Y-122912795D01*
X131682265Y-122912795D02*
X131729884Y-122769938D01*
X131729884Y-122769938D02*
X131825122Y-122674700D01*
X131825122Y-122674700D02*
X131920360Y-122627081D01*
X131920360Y-122627081D02*
X132110836Y-122579462D01*
X132110836Y-122579462D02*
X132253693Y-122579462D01*
X132253693Y-122579462D02*
X132444169Y-122627081D01*
X132444169Y-122627081D02*
X132539407Y-122674700D01*
X132539407Y-122674700D02*
X132634646Y-122769938D01*
X132634646Y-122769938D02*
X132682265Y-122912795D01*
X132682265Y-122912795D02*
X132682265Y-123150890D01*
X132682265Y-121627081D02*
X132682265Y-122198509D01*
X132682265Y-121912795D02*
X131682265Y-121912795D01*
X131682265Y-121912795D02*
X131825122Y-122008033D01*
X131825122Y-122008033D02*
X131920360Y-122103271D01*
X131920360Y-122103271D02*
X131967979Y-122198509D01*
%TO.C,R26*%
X188078096Y-209980619D02*
X187744763Y-209504428D01*
X187506668Y-209980619D02*
X187506668Y-208980619D01*
X187506668Y-208980619D02*
X187887620Y-208980619D01*
X187887620Y-208980619D02*
X187982858Y-209028238D01*
X187982858Y-209028238D02*
X188030477Y-209075857D01*
X188030477Y-209075857D02*
X188078096Y-209171095D01*
X188078096Y-209171095D02*
X188078096Y-209313952D01*
X188078096Y-209313952D02*
X188030477Y-209409190D01*
X188030477Y-209409190D02*
X187982858Y-209456809D01*
X187982858Y-209456809D02*
X187887620Y-209504428D01*
X187887620Y-209504428D02*
X187506668Y-209504428D01*
X188459049Y-209075857D02*
X188506668Y-209028238D01*
X188506668Y-209028238D02*
X188601906Y-208980619D01*
X188601906Y-208980619D02*
X188840001Y-208980619D01*
X188840001Y-208980619D02*
X188935239Y-209028238D01*
X188935239Y-209028238D02*
X188982858Y-209075857D01*
X188982858Y-209075857D02*
X189030477Y-209171095D01*
X189030477Y-209171095D02*
X189030477Y-209266333D01*
X189030477Y-209266333D02*
X188982858Y-209409190D01*
X188982858Y-209409190D02*
X188411430Y-209980619D01*
X188411430Y-209980619D02*
X189030477Y-209980619D01*
X189887620Y-208980619D02*
X189697144Y-208980619D01*
X189697144Y-208980619D02*
X189601906Y-209028238D01*
X189601906Y-209028238D02*
X189554287Y-209075857D01*
X189554287Y-209075857D02*
X189459049Y-209218714D01*
X189459049Y-209218714D02*
X189411430Y-209409190D01*
X189411430Y-209409190D02*
X189411430Y-209790142D01*
X189411430Y-209790142D02*
X189459049Y-209885380D01*
X189459049Y-209885380D02*
X189506668Y-209933000D01*
X189506668Y-209933000D02*
X189601906Y-209980619D01*
X189601906Y-209980619D02*
X189792382Y-209980619D01*
X189792382Y-209980619D02*
X189887620Y-209933000D01*
X189887620Y-209933000D02*
X189935239Y-209885380D01*
X189935239Y-209885380D02*
X189982858Y-209790142D01*
X189982858Y-209790142D02*
X189982858Y-209552047D01*
X189982858Y-209552047D02*
X189935239Y-209456809D01*
X189935239Y-209456809D02*
X189887620Y-209409190D01*
X189887620Y-209409190D02*
X189792382Y-209361571D01*
X189792382Y-209361571D02*
X189601906Y-209361571D01*
X189601906Y-209361571D02*
X189506668Y-209409190D01*
X189506668Y-209409190D02*
X189459049Y-209456809D01*
X189459049Y-209456809D02*
X189411430Y-209552047D01*
%TO.C,R22*%
X148101142Y-209980619D02*
X147767809Y-209504428D01*
X147529714Y-209980619D02*
X147529714Y-208980619D01*
X147529714Y-208980619D02*
X147910666Y-208980619D01*
X147910666Y-208980619D02*
X148005904Y-209028238D01*
X148005904Y-209028238D02*
X148053523Y-209075857D01*
X148053523Y-209075857D02*
X148101142Y-209171095D01*
X148101142Y-209171095D02*
X148101142Y-209313952D01*
X148101142Y-209313952D02*
X148053523Y-209409190D01*
X148053523Y-209409190D02*
X148005904Y-209456809D01*
X148005904Y-209456809D02*
X147910666Y-209504428D01*
X147910666Y-209504428D02*
X147529714Y-209504428D01*
X148482095Y-209075857D02*
X148529714Y-209028238D01*
X148529714Y-209028238D02*
X148624952Y-208980619D01*
X148624952Y-208980619D02*
X148863047Y-208980619D01*
X148863047Y-208980619D02*
X148958285Y-209028238D01*
X148958285Y-209028238D02*
X149005904Y-209075857D01*
X149005904Y-209075857D02*
X149053523Y-209171095D01*
X149053523Y-209171095D02*
X149053523Y-209266333D01*
X149053523Y-209266333D02*
X149005904Y-209409190D01*
X149005904Y-209409190D02*
X148434476Y-209980619D01*
X148434476Y-209980619D02*
X149053523Y-209980619D01*
X149434476Y-209075857D02*
X149482095Y-209028238D01*
X149482095Y-209028238D02*
X149577333Y-208980619D01*
X149577333Y-208980619D02*
X149815428Y-208980619D01*
X149815428Y-208980619D02*
X149910666Y-209028238D01*
X149910666Y-209028238D02*
X149958285Y-209075857D01*
X149958285Y-209075857D02*
X150005904Y-209171095D01*
X150005904Y-209171095D02*
X150005904Y-209266333D01*
X150005904Y-209266333D02*
X149958285Y-209409190D01*
X149958285Y-209409190D02*
X149386857Y-209980619D01*
X149386857Y-209980619D02*
X150005904Y-209980619D01*
%TO.C,C16*%
X135167026Y-120655653D02*
X135214646Y-120703272D01*
X135214646Y-120703272D02*
X135262265Y-120846129D01*
X135262265Y-120846129D02*
X135262265Y-120941367D01*
X135262265Y-120941367D02*
X135214646Y-121084224D01*
X135214646Y-121084224D02*
X135119407Y-121179462D01*
X135119407Y-121179462D02*
X135024169Y-121227081D01*
X135024169Y-121227081D02*
X134833693Y-121274700D01*
X134833693Y-121274700D02*
X134690836Y-121274700D01*
X134690836Y-121274700D02*
X134500360Y-121227081D01*
X134500360Y-121227081D02*
X134405122Y-121179462D01*
X134405122Y-121179462D02*
X134309884Y-121084224D01*
X134309884Y-121084224D02*
X134262265Y-120941367D01*
X134262265Y-120941367D02*
X134262265Y-120846129D01*
X134262265Y-120846129D02*
X134309884Y-120703272D01*
X134309884Y-120703272D02*
X134357503Y-120655653D01*
X135262265Y-119703272D02*
X135262265Y-120274700D01*
X135262265Y-119988986D02*
X134262265Y-119988986D01*
X134262265Y-119988986D02*
X134405122Y-120084224D01*
X134405122Y-120084224D02*
X134500360Y-120179462D01*
X134500360Y-120179462D02*
X134547979Y-120274700D01*
X134262265Y-118846129D02*
X134262265Y-119036605D01*
X134262265Y-119036605D02*
X134309884Y-119131843D01*
X134309884Y-119131843D02*
X134357503Y-119179462D01*
X134357503Y-119179462D02*
X134500360Y-119274700D01*
X134500360Y-119274700D02*
X134690836Y-119322319D01*
X134690836Y-119322319D02*
X135071788Y-119322319D01*
X135071788Y-119322319D02*
X135167026Y-119274700D01*
X135167026Y-119274700D02*
X135214646Y-119227081D01*
X135214646Y-119227081D02*
X135262265Y-119131843D01*
X135262265Y-119131843D02*
X135262265Y-118941367D01*
X135262265Y-118941367D02*
X135214646Y-118846129D01*
X135214646Y-118846129D02*
X135167026Y-118798510D01*
X135167026Y-118798510D02*
X135071788Y-118750891D01*
X135071788Y-118750891D02*
X134833693Y-118750891D01*
X134833693Y-118750891D02*
X134738455Y-118798510D01*
X134738455Y-118798510D02*
X134690836Y-118846129D01*
X134690836Y-118846129D02*
X134643217Y-118941367D01*
X134643217Y-118941367D02*
X134643217Y-119131843D01*
X134643217Y-119131843D02*
X134690836Y-119227081D01*
X134690836Y-119227081D02*
X134738455Y-119274700D01*
X134738455Y-119274700D02*
X134833693Y-119322319D01*
%TO.C,R37*%
X148073096Y-247440619D02*
X147739763Y-246964428D01*
X147501668Y-247440619D02*
X147501668Y-246440619D01*
X147501668Y-246440619D02*
X147882620Y-246440619D01*
X147882620Y-246440619D02*
X147977858Y-246488238D01*
X147977858Y-246488238D02*
X148025477Y-246535857D01*
X148025477Y-246535857D02*
X148073096Y-246631095D01*
X148073096Y-246631095D02*
X148073096Y-246773952D01*
X148073096Y-246773952D02*
X148025477Y-246869190D01*
X148025477Y-246869190D02*
X147977858Y-246916809D01*
X147977858Y-246916809D02*
X147882620Y-246964428D01*
X147882620Y-246964428D02*
X147501668Y-246964428D01*
X148406430Y-246440619D02*
X149025477Y-246440619D01*
X149025477Y-246440619D02*
X148692144Y-246821571D01*
X148692144Y-246821571D02*
X148835001Y-246821571D01*
X148835001Y-246821571D02*
X148930239Y-246869190D01*
X148930239Y-246869190D02*
X148977858Y-246916809D01*
X148977858Y-246916809D02*
X149025477Y-247012047D01*
X149025477Y-247012047D02*
X149025477Y-247250142D01*
X149025477Y-247250142D02*
X148977858Y-247345380D01*
X148977858Y-247345380D02*
X148930239Y-247393000D01*
X148930239Y-247393000D02*
X148835001Y-247440619D01*
X148835001Y-247440619D02*
X148549287Y-247440619D01*
X148549287Y-247440619D02*
X148454049Y-247393000D01*
X148454049Y-247393000D02*
X148406430Y-247345380D01*
X149358811Y-246440619D02*
X150025477Y-246440619D01*
X150025477Y-246440619D02*
X149596906Y-247440619D01*
%TO.C,C17*%
X141731776Y-157533403D02*
X141684157Y-157581023D01*
X141684157Y-157581023D02*
X141541300Y-157628642D01*
X141541300Y-157628642D02*
X141446062Y-157628642D01*
X141446062Y-157628642D02*
X141303205Y-157581023D01*
X141303205Y-157581023D02*
X141207967Y-157485784D01*
X141207967Y-157485784D02*
X141160348Y-157390546D01*
X141160348Y-157390546D02*
X141112729Y-157200070D01*
X141112729Y-157200070D02*
X141112729Y-157057213D01*
X141112729Y-157057213D02*
X141160348Y-156866737D01*
X141160348Y-156866737D02*
X141207967Y-156771499D01*
X141207967Y-156771499D02*
X141303205Y-156676261D01*
X141303205Y-156676261D02*
X141446062Y-156628642D01*
X141446062Y-156628642D02*
X141541300Y-156628642D01*
X141541300Y-156628642D02*
X141684157Y-156676261D01*
X141684157Y-156676261D02*
X141731776Y-156723880D01*
X142684157Y-157628642D02*
X142112729Y-157628642D01*
X142398443Y-157628642D02*
X142398443Y-156628642D01*
X142398443Y-156628642D02*
X142303205Y-156771499D01*
X142303205Y-156771499D02*
X142207967Y-156866737D01*
X142207967Y-156866737D02*
X142112729Y-156914356D01*
X143017491Y-156628642D02*
X143684157Y-156628642D01*
X143684157Y-156628642D02*
X143255586Y-157628642D01*
%TO.C,C33*%
X71611980Y-172860857D02*
X71659600Y-172908476D01*
X71659600Y-172908476D02*
X71707219Y-173051333D01*
X71707219Y-173051333D02*
X71707219Y-173146571D01*
X71707219Y-173146571D02*
X71659600Y-173289428D01*
X71659600Y-173289428D02*
X71564361Y-173384666D01*
X71564361Y-173384666D02*
X71469123Y-173432285D01*
X71469123Y-173432285D02*
X71278647Y-173479904D01*
X71278647Y-173479904D02*
X71135790Y-173479904D01*
X71135790Y-173479904D02*
X70945314Y-173432285D01*
X70945314Y-173432285D02*
X70850076Y-173384666D01*
X70850076Y-173384666D02*
X70754838Y-173289428D01*
X70754838Y-173289428D02*
X70707219Y-173146571D01*
X70707219Y-173146571D02*
X70707219Y-173051333D01*
X70707219Y-173051333D02*
X70754838Y-172908476D01*
X70754838Y-172908476D02*
X70802457Y-172860857D01*
X70707219Y-172527523D02*
X70707219Y-171908476D01*
X70707219Y-171908476D02*
X71088171Y-172241809D01*
X71088171Y-172241809D02*
X71088171Y-172098952D01*
X71088171Y-172098952D02*
X71135790Y-172003714D01*
X71135790Y-172003714D02*
X71183409Y-171956095D01*
X71183409Y-171956095D02*
X71278647Y-171908476D01*
X71278647Y-171908476D02*
X71516742Y-171908476D01*
X71516742Y-171908476D02*
X71611980Y-171956095D01*
X71611980Y-171956095D02*
X71659600Y-172003714D01*
X71659600Y-172003714D02*
X71707219Y-172098952D01*
X71707219Y-172098952D02*
X71707219Y-172384666D01*
X71707219Y-172384666D02*
X71659600Y-172479904D01*
X71659600Y-172479904D02*
X71611980Y-172527523D01*
X70707219Y-171575142D02*
X70707219Y-170956095D01*
X70707219Y-170956095D02*
X71088171Y-171289428D01*
X71088171Y-171289428D02*
X71088171Y-171146571D01*
X71088171Y-171146571D02*
X71135790Y-171051333D01*
X71135790Y-171051333D02*
X71183409Y-171003714D01*
X71183409Y-171003714D02*
X71278647Y-170956095D01*
X71278647Y-170956095D02*
X71516742Y-170956095D01*
X71516742Y-170956095D02*
X71611980Y-171003714D01*
X71611980Y-171003714D02*
X71659600Y-171051333D01*
X71659600Y-171051333D02*
X71707219Y-171146571D01*
X71707219Y-171146571D02*
X71707219Y-171432285D01*
X71707219Y-171432285D02*
X71659600Y-171527523D01*
X71659600Y-171527523D02*
X71611980Y-171575142D01*
%TO.C,R23*%
X168046342Y-207385619D02*
X167713009Y-206909428D01*
X167474914Y-207385619D02*
X167474914Y-206385619D01*
X167474914Y-206385619D02*
X167855866Y-206385619D01*
X167855866Y-206385619D02*
X167951104Y-206433238D01*
X167951104Y-206433238D02*
X167998723Y-206480857D01*
X167998723Y-206480857D02*
X168046342Y-206576095D01*
X168046342Y-206576095D02*
X168046342Y-206718952D01*
X168046342Y-206718952D02*
X167998723Y-206814190D01*
X167998723Y-206814190D02*
X167951104Y-206861809D01*
X167951104Y-206861809D02*
X167855866Y-206909428D01*
X167855866Y-206909428D02*
X167474914Y-206909428D01*
X168427295Y-206480857D02*
X168474914Y-206433238D01*
X168474914Y-206433238D02*
X168570152Y-206385619D01*
X168570152Y-206385619D02*
X168808247Y-206385619D01*
X168808247Y-206385619D02*
X168903485Y-206433238D01*
X168903485Y-206433238D02*
X168951104Y-206480857D01*
X168951104Y-206480857D02*
X168998723Y-206576095D01*
X168998723Y-206576095D02*
X168998723Y-206671333D01*
X168998723Y-206671333D02*
X168951104Y-206814190D01*
X168951104Y-206814190D02*
X168379676Y-207385619D01*
X168379676Y-207385619D02*
X168998723Y-207385619D01*
X169332057Y-206385619D02*
X169951104Y-206385619D01*
X169951104Y-206385619D02*
X169617771Y-206766571D01*
X169617771Y-206766571D02*
X169760628Y-206766571D01*
X169760628Y-206766571D02*
X169855866Y-206814190D01*
X169855866Y-206814190D02*
X169903485Y-206861809D01*
X169903485Y-206861809D02*
X169951104Y-206957047D01*
X169951104Y-206957047D02*
X169951104Y-207195142D01*
X169951104Y-207195142D02*
X169903485Y-207290380D01*
X169903485Y-207290380D02*
X169855866Y-207338000D01*
X169855866Y-207338000D02*
X169760628Y-207385619D01*
X169760628Y-207385619D02*
X169474914Y-207385619D01*
X169474914Y-207385619D02*
X169379676Y-207338000D01*
X169379676Y-207338000D02*
X169332057Y-207290380D01*
%TO.C,C28*%
X159211142Y-227345380D02*
X159163523Y-227393000D01*
X159163523Y-227393000D02*
X159020666Y-227440619D01*
X159020666Y-227440619D02*
X158925428Y-227440619D01*
X158925428Y-227440619D02*
X158782571Y-227393000D01*
X158782571Y-227393000D02*
X158687333Y-227297761D01*
X158687333Y-227297761D02*
X158639714Y-227202523D01*
X158639714Y-227202523D02*
X158592095Y-227012047D01*
X158592095Y-227012047D02*
X158592095Y-226869190D01*
X158592095Y-226869190D02*
X158639714Y-226678714D01*
X158639714Y-226678714D02*
X158687333Y-226583476D01*
X158687333Y-226583476D02*
X158782571Y-226488238D01*
X158782571Y-226488238D02*
X158925428Y-226440619D01*
X158925428Y-226440619D02*
X159020666Y-226440619D01*
X159020666Y-226440619D02*
X159163523Y-226488238D01*
X159163523Y-226488238D02*
X159211142Y-226535857D01*
X159592095Y-226535857D02*
X159639714Y-226488238D01*
X159639714Y-226488238D02*
X159734952Y-226440619D01*
X159734952Y-226440619D02*
X159973047Y-226440619D01*
X159973047Y-226440619D02*
X160068285Y-226488238D01*
X160068285Y-226488238D02*
X160115904Y-226535857D01*
X160115904Y-226535857D02*
X160163523Y-226631095D01*
X160163523Y-226631095D02*
X160163523Y-226726333D01*
X160163523Y-226726333D02*
X160115904Y-226869190D01*
X160115904Y-226869190D02*
X159544476Y-227440619D01*
X159544476Y-227440619D02*
X160163523Y-227440619D01*
X160734952Y-226869190D02*
X160639714Y-226821571D01*
X160639714Y-226821571D02*
X160592095Y-226773952D01*
X160592095Y-226773952D02*
X160544476Y-226678714D01*
X160544476Y-226678714D02*
X160544476Y-226631095D01*
X160544476Y-226631095D02*
X160592095Y-226535857D01*
X160592095Y-226535857D02*
X160639714Y-226488238D01*
X160639714Y-226488238D02*
X160734952Y-226440619D01*
X160734952Y-226440619D02*
X160925428Y-226440619D01*
X160925428Y-226440619D02*
X161020666Y-226488238D01*
X161020666Y-226488238D02*
X161068285Y-226535857D01*
X161068285Y-226535857D02*
X161115904Y-226631095D01*
X161115904Y-226631095D02*
X161115904Y-226678714D01*
X161115904Y-226678714D02*
X161068285Y-226773952D01*
X161068285Y-226773952D02*
X161020666Y-226821571D01*
X161020666Y-226821571D02*
X160925428Y-226869190D01*
X160925428Y-226869190D02*
X160734952Y-226869190D01*
X160734952Y-226869190D02*
X160639714Y-226916809D01*
X160639714Y-226916809D02*
X160592095Y-226964428D01*
X160592095Y-226964428D02*
X160544476Y-227059666D01*
X160544476Y-227059666D02*
X160544476Y-227250142D01*
X160544476Y-227250142D02*
X160592095Y-227345380D01*
X160592095Y-227345380D02*
X160639714Y-227393000D01*
X160639714Y-227393000D02*
X160734952Y-227440619D01*
X160734952Y-227440619D02*
X160925428Y-227440619D01*
X160925428Y-227440619D02*
X161020666Y-227393000D01*
X161020666Y-227393000D02*
X161068285Y-227345380D01*
X161068285Y-227345380D02*
X161115904Y-227250142D01*
X161115904Y-227250142D02*
X161115904Y-227059666D01*
X161115904Y-227059666D02*
X161068285Y-226964428D01*
X161068285Y-226964428D02*
X161020666Y-226916809D01*
X161020666Y-226916809D02*
X160925428Y-226869190D01*
%TO.C,R38*%
X148101142Y-249980619D02*
X147767809Y-249504428D01*
X147529714Y-249980619D02*
X147529714Y-248980619D01*
X147529714Y-248980619D02*
X147910666Y-248980619D01*
X147910666Y-248980619D02*
X148005904Y-249028238D01*
X148005904Y-249028238D02*
X148053523Y-249075857D01*
X148053523Y-249075857D02*
X148101142Y-249171095D01*
X148101142Y-249171095D02*
X148101142Y-249313952D01*
X148101142Y-249313952D02*
X148053523Y-249409190D01*
X148053523Y-249409190D02*
X148005904Y-249456809D01*
X148005904Y-249456809D02*
X147910666Y-249504428D01*
X147910666Y-249504428D02*
X147529714Y-249504428D01*
X148434476Y-248980619D02*
X149053523Y-248980619D01*
X149053523Y-248980619D02*
X148720190Y-249361571D01*
X148720190Y-249361571D02*
X148863047Y-249361571D01*
X148863047Y-249361571D02*
X148958285Y-249409190D01*
X148958285Y-249409190D02*
X149005904Y-249456809D01*
X149005904Y-249456809D02*
X149053523Y-249552047D01*
X149053523Y-249552047D02*
X149053523Y-249790142D01*
X149053523Y-249790142D02*
X149005904Y-249885380D01*
X149005904Y-249885380D02*
X148958285Y-249933000D01*
X148958285Y-249933000D02*
X148863047Y-249980619D01*
X148863047Y-249980619D02*
X148577333Y-249980619D01*
X148577333Y-249980619D02*
X148482095Y-249933000D01*
X148482095Y-249933000D02*
X148434476Y-249885380D01*
X149624952Y-249409190D02*
X149529714Y-249361571D01*
X149529714Y-249361571D02*
X149482095Y-249313952D01*
X149482095Y-249313952D02*
X149434476Y-249218714D01*
X149434476Y-249218714D02*
X149434476Y-249171095D01*
X149434476Y-249171095D02*
X149482095Y-249075857D01*
X149482095Y-249075857D02*
X149529714Y-249028238D01*
X149529714Y-249028238D02*
X149624952Y-248980619D01*
X149624952Y-248980619D02*
X149815428Y-248980619D01*
X149815428Y-248980619D02*
X149910666Y-249028238D01*
X149910666Y-249028238D02*
X149958285Y-249075857D01*
X149958285Y-249075857D02*
X150005904Y-249171095D01*
X150005904Y-249171095D02*
X150005904Y-249218714D01*
X150005904Y-249218714D02*
X149958285Y-249313952D01*
X149958285Y-249313952D02*
X149910666Y-249361571D01*
X149910666Y-249361571D02*
X149815428Y-249409190D01*
X149815428Y-249409190D02*
X149624952Y-249409190D01*
X149624952Y-249409190D02*
X149529714Y-249456809D01*
X149529714Y-249456809D02*
X149482095Y-249504428D01*
X149482095Y-249504428D02*
X149434476Y-249599666D01*
X149434476Y-249599666D02*
X149434476Y-249790142D01*
X149434476Y-249790142D02*
X149482095Y-249885380D01*
X149482095Y-249885380D02*
X149529714Y-249933000D01*
X149529714Y-249933000D02*
X149624952Y-249980619D01*
X149624952Y-249980619D02*
X149815428Y-249980619D01*
X149815428Y-249980619D02*
X149910666Y-249933000D01*
X149910666Y-249933000D02*
X149958285Y-249885380D01*
X149958285Y-249885380D02*
X150005904Y-249790142D01*
X150005904Y-249790142D02*
X150005904Y-249599666D01*
X150005904Y-249599666D02*
X149958285Y-249504428D01*
X149958285Y-249504428D02*
X149910666Y-249456809D01*
X149910666Y-249456809D02*
X149815428Y-249409190D01*
%TO.C,C4*%
X130513380Y-156708666D02*
X130561000Y-156756285D01*
X130561000Y-156756285D02*
X130608619Y-156899142D01*
X130608619Y-156899142D02*
X130608619Y-156994380D01*
X130608619Y-156994380D02*
X130561000Y-157137237D01*
X130561000Y-157137237D02*
X130465761Y-157232475D01*
X130465761Y-157232475D02*
X130370523Y-157280094D01*
X130370523Y-157280094D02*
X130180047Y-157327713D01*
X130180047Y-157327713D02*
X130037190Y-157327713D01*
X130037190Y-157327713D02*
X129846714Y-157280094D01*
X129846714Y-157280094D02*
X129751476Y-157232475D01*
X129751476Y-157232475D02*
X129656238Y-157137237D01*
X129656238Y-157137237D02*
X129608619Y-156994380D01*
X129608619Y-156994380D02*
X129608619Y-156899142D01*
X129608619Y-156899142D02*
X129656238Y-156756285D01*
X129656238Y-156756285D02*
X129703857Y-156708666D01*
X129941952Y-155851523D02*
X130608619Y-155851523D01*
X129561000Y-156089618D02*
X130275285Y-156327713D01*
X130275285Y-156327713D02*
X130275285Y-155708666D01*
%TO.C,U8*%
X197549356Y-150932619D02*
X197549356Y-151742142D01*
X197549356Y-151742142D02*
X197596975Y-151837380D01*
X197596975Y-151837380D02*
X197644594Y-151885000D01*
X197644594Y-151885000D02*
X197739832Y-151932619D01*
X197739832Y-151932619D02*
X197930308Y-151932619D01*
X197930308Y-151932619D02*
X198025546Y-151885000D01*
X198025546Y-151885000D02*
X198073165Y-151837380D01*
X198073165Y-151837380D02*
X198120784Y-151742142D01*
X198120784Y-151742142D02*
X198120784Y-150932619D01*
X198739832Y-151361190D02*
X198644594Y-151313571D01*
X198644594Y-151313571D02*
X198596975Y-151265952D01*
X198596975Y-151265952D02*
X198549356Y-151170714D01*
X198549356Y-151170714D02*
X198549356Y-151123095D01*
X198549356Y-151123095D02*
X198596975Y-151027857D01*
X198596975Y-151027857D02*
X198644594Y-150980238D01*
X198644594Y-150980238D02*
X198739832Y-150932619D01*
X198739832Y-150932619D02*
X198930308Y-150932619D01*
X198930308Y-150932619D02*
X199025546Y-150980238D01*
X199025546Y-150980238D02*
X199073165Y-151027857D01*
X199073165Y-151027857D02*
X199120784Y-151123095D01*
X199120784Y-151123095D02*
X199120784Y-151170714D01*
X199120784Y-151170714D02*
X199073165Y-151265952D01*
X199073165Y-151265952D02*
X199025546Y-151313571D01*
X199025546Y-151313571D02*
X198930308Y-151361190D01*
X198930308Y-151361190D02*
X198739832Y-151361190D01*
X198739832Y-151361190D02*
X198644594Y-151408809D01*
X198644594Y-151408809D02*
X198596975Y-151456428D01*
X198596975Y-151456428D02*
X198549356Y-151551666D01*
X198549356Y-151551666D02*
X198549356Y-151742142D01*
X198549356Y-151742142D02*
X198596975Y-151837380D01*
X198596975Y-151837380D02*
X198644594Y-151885000D01*
X198644594Y-151885000D02*
X198739832Y-151932619D01*
X198739832Y-151932619D02*
X198930308Y-151932619D01*
X198930308Y-151932619D02*
X199025546Y-151885000D01*
X199025546Y-151885000D02*
X199073165Y-151837380D01*
X199073165Y-151837380D02*
X199120784Y-151742142D01*
X199120784Y-151742142D02*
X199120784Y-151551666D01*
X199120784Y-151551666D02*
X199073165Y-151456428D01*
X199073165Y-151456428D02*
X199025546Y-151408809D01*
X199025546Y-151408809D02*
X198930308Y-151361190D01*
%TO.C,R32*%
X168139096Y-227440619D02*
X167805763Y-226964428D01*
X167567668Y-227440619D02*
X167567668Y-226440619D01*
X167567668Y-226440619D02*
X167948620Y-226440619D01*
X167948620Y-226440619D02*
X168043858Y-226488238D01*
X168043858Y-226488238D02*
X168091477Y-226535857D01*
X168091477Y-226535857D02*
X168139096Y-226631095D01*
X168139096Y-226631095D02*
X168139096Y-226773952D01*
X168139096Y-226773952D02*
X168091477Y-226869190D01*
X168091477Y-226869190D02*
X168043858Y-226916809D01*
X168043858Y-226916809D02*
X167948620Y-226964428D01*
X167948620Y-226964428D02*
X167567668Y-226964428D01*
X168472430Y-226440619D02*
X169091477Y-226440619D01*
X169091477Y-226440619D02*
X168758144Y-226821571D01*
X168758144Y-226821571D02*
X168901001Y-226821571D01*
X168901001Y-226821571D02*
X168996239Y-226869190D01*
X168996239Y-226869190D02*
X169043858Y-226916809D01*
X169043858Y-226916809D02*
X169091477Y-227012047D01*
X169091477Y-227012047D02*
X169091477Y-227250142D01*
X169091477Y-227250142D02*
X169043858Y-227345380D01*
X169043858Y-227345380D02*
X168996239Y-227393000D01*
X168996239Y-227393000D02*
X168901001Y-227440619D01*
X168901001Y-227440619D02*
X168615287Y-227440619D01*
X168615287Y-227440619D02*
X168520049Y-227393000D01*
X168520049Y-227393000D02*
X168472430Y-227345380D01*
X169472430Y-226535857D02*
X169520049Y-226488238D01*
X169520049Y-226488238D02*
X169615287Y-226440619D01*
X169615287Y-226440619D02*
X169853382Y-226440619D01*
X169853382Y-226440619D02*
X169948620Y-226488238D01*
X169948620Y-226488238D02*
X169996239Y-226535857D01*
X169996239Y-226535857D02*
X170043858Y-226631095D01*
X170043858Y-226631095D02*
X170043858Y-226726333D01*
X170043858Y-226726333D02*
X169996239Y-226869190D01*
X169996239Y-226869190D02*
X169424811Y-227440619D01*
X169424811Y-227440619D02*
X170043858Y-227440619D01*
%TO.C,C49*%
X91602180Y-133002457D02*
X91649800Y-133050076D01*
X91649800Y-133050076D02*
X91697419Y-133192933D01*
X91697419Y-133192933D02*
X91697419Y-133288171D01*
X91697419Y-133288171D02*
X91649800Y-133431028D01*
X91649800Y-133431028D02*
X91554561Y-133526266D01*
X91554561Y-133526266D02*
X91459323Y-133573885D01*
X91459323Y-133573885D02*
X91268847Y-133621504D01*
X91268847Y-133621504D02*
X91125990Y-133621504D01*
X91125990Y-133621504D02*
X90935514Y-133573885D01*
X90935514Y-133573885D02*
X90840276Y-133526266D01*
X90840276Y-133526266D02*
X90745038Y-133431028D01*
X90745038Y-133431028D02*
X90697419Y-133288171D01*
X90697419Y-133288171D02*
X90697419Y-133192933D01*
X90697419Y-133192933D02*
X90745038Y-133050076D01*
X90745038Y-133050076D02*
X90792657Y-133002457D01*
X91030752Y-132145314D02*
X91697419Y-132145314D01*
X90649800Y-132383409D02*
X91364085Y-132621504D01*
X91364085Y-132621504D02*
X91364085Y-132002457D01*
X91697419Y-131573885D02*
X91697419Y-131383409D01*
X91697419Y-131383409D02*
X91649800Y-131288171D01*
X91649800Y-131288171D02*
X91602180Y-131240552D01*
X91602180Y-131240552D02*
X91459323Y-131145314D01*
X91459323Y-131145314D02*
X91268847Y-131097695D01*
X91268847Y-131097695D02*
X90887895Y-131097695D01*
X90887895Y-131097695D02*
X90792657Y-131145314D01*
X90792657Y-131145314D02*
X90745038Y-131192933D01*
X90745038Y-131192933D02*
X90697419Y-131288171D01*
X90697419Y-131288171D02*
X90697419Y-131478647D01*
X90697419Y-131478647D02*
X90745038Y-131573885D01*
X90745038Y-131573885D02*
X90792657Y-131621504D01*
X90792657Y-131621504D02*
X90887895Y-131669123D01*
X90887895Y-131669123D02*
X91125990Y-131669123D01*
X91125990Y-131669123D02*
X91221228Y-131621504D01*
X91221228Y-131621504D02*
X91268847Y-131573885D01*
X91268847Y-131573885D02*
X91316466Y-131478647D01*
X91316466Y-131478647D02*
X91316466Y-131288171D01*
X91316466Y-131288171D02*
X91268847Y-131192933D01*
X91268847Y-131192933D02*
X91221228Y-131145314D01*
X91221228Y-131145314D02*
X91125990Y-131097695D01*
%TO.C,C29*%
X179211142Y-227345380D02*
X179163523Y-227393000D01*
X179163523Y-227393000D02*
X179020666Y-227440619D01*
X179020666Y-227440619D02*
X178925428Y-227440619D01*
X178925428Y-227440619D02*
X178782571Y-227393000D01*
X178782571Y-227393000D02*
X178687333Y-227297761D01*
X178687333Y-227297761D02*
X178639714Y-227202523D01*
X178639714Y-227202523D02*
X178592095Y-227012047D01*
X178592095Y-227012047D02*
X178592095Y-226869190D01*
X178592095Y-226869190D02*
X178639714Y-226678714D01*
X178639714Y-226678714D02*
X178687333Y-226583476D01*
X178687333Y-226583476D02*
X178782571Y-226488238D01*
X178782571Y-226488238D02*
X178925428Y-226440619D01*
X178925428Y-226440619D02*
X179020666Y-226440619D01*
X179020666Y-226440619D02*
X179163523Y-226488238D01*
X179163523Y-226488238D02*
X179211142Y-226535857D01*
X179592095Y-226535857D02*
X179639714Y-226488238D01*
X179639714Y-226488238D02*
X179734952Y-226440619D01*
X179734952Y-226440619D02*
X179973047Y-226440619D01*
X179973047Y-226440619D02*
X180068285Y-226488238D01*
X180068285Y-226488238D02*
X180115904Y-226535857D01*
X180115904Y-226535857D02*
X180163523Y-226631095D01*
X180163523Y-226631095D02*
X180163523Y-226726333D01*
X180163523Y-226726333D02*
X180115904Y-226869190D01*
X180115904Y-226869190D02*
X179544476Y-227440619D01*
X179544476Y-227440619D02*
X180163523Y-227440619D01*
X180639714Y-227440619D02*
X180830190Y-227440619D01*
X180830190Y-227440619D02*
X180925428Y-227393000D01*
X180925428Y-227393000D02*
X180973047Y-227345380D01*
X180973047Y-227345380D02*
X181068285Y-227202523D01*
X181068285Y-227202523D02*
X181115904Y-227012047D01*
X181115904Y-227012047D02*
X181115904Y-226631095D01*
X181115904Y-226631095D02*
X181068285Y-226535857D01*
X181068285Y-226535857D02*
X181020666Y-226488238D01*
X181020666Y-226488238D02*
X180925428Y-226440619D01*
X180925428Y-226440619D02*
X180734952Y-226440619D01*
X180734952Y-226440619D02*
X180639714Y-226488238D01*
X180639714Y-226488238D02*
X180592095Y-226535857D01*
X180592095Y-226535857D02*
X180544476Y-226631095D01*
X180544476Y-226631095D02*
X180544476Y-226869190D01*
X180544476Y-226869190D02*
X180592095Y-226964428D01*
X180592095Y-226964428D02*
X180639714Y-227012047D01*
X180639714Y-227012047D02*
X180734952Y-227059666D01*
X180734952Y-227059666D02*
X180925428Y-227059666D01*
X180925428Y-227059666D02*
X181020666Y-227012047D01*
X181020666Y-227012047D02*
X181068285Y-226964428D01*
X181068285Y-226964428D02*
X181115904Y-226869190D01*
%TO.C,U3*%
X131941095Y-150624619D02*
X131941095Y-151434142D01*
X131941095Y-151434142D02*
X131988714Y-151529380D01*
X131988714Y-151529380D02*
X132036333Y-151577000D01*
X132036333Y-151577000D02*
X132131571Y-151624619D01*
X132131571Y-151624619D02*
X132322047Y-151624619D01*
X132322047Y-151624619D02*
X132417285Y-151577000D01*
X132417285Y-151577000D02*
X132464904Y-151529380D01*
X132464904Y-151529380D02*
X132512523Y-151434142D01*
X132512523Y-151434142D02*
X132512523Y-150624619D01*
X132893476Y-150624619D02*
X133512523Y-150624619D01*
X133512523Y-150624619D02*
X133179190Y-151005571D01*
X133179190Y-151005571D02*
X133322047Y-151005571D01*
X133322047Y-151005571D02*
X133417285Y-151053190D01*
X133417285Y-151053190D02*
X133464904Y-151100809D01*
X133464904Y-151100809D02*
X133512523Y-151196047D01*
X133512523Y-151196047D02*
X133512523Y-151434142D01*
X133512523Y-151434142D02*
X133464904Y-151529380D01*
X133464904Y-151529380D02*
X133417285Y-151577000D01*
X133417285Y-151577000D02*
X133322047Y-151624619D01*
X133322047Y-151624619D02*
X133036333Y-151624619D01*
X133036333Y-151624619D02*
X132941095Y-151577000D01*
X132941095Y-151577000D02*
X132893476Y-151529380D01*
%TO.C,R40*%
X168101142Y-249980619D02*
X167767809Y-249504428D01*
X167529714Y-249980619D02*
X167529714Y-248980619D01*
X167529714Y-248980619D02*
X167910666Y-248980619D01*
X167910666Y-248980619D02*
X168005904Y-249028238D01*
X168005904Y-249028238D02*
X168053523Y-249075857D01*
X168053523Y-249075857D02*
X168101142Y-249171095D01*
X168101142Y-249171095D02*
X168101142Y-249313952D01*
X168101142Y-249313952D02*
X168053523Y-249409190D01*
X168053523Y-249409190D02*
X168005904Y-249456809D01*
X168005904Y-249456809D02*
X167910666Y-249504428D01*
X167910666Y-249504428D02*
X167529714Y-249504428D01*
X168958285Y-249313952D02*
X168958285Y-249980619D01*
X168720190Y-248933000D02*
X168482095Y-249647285D01*
X168482095Y-249647285D02*
X169101142Y-249647285D01*
X169672571Y-248980619D02*
X169767809Y-248980619D01*
X169767809Y-248980619D02*
X169863047Y-249028238D01*
X169863047Y-249028238D02*
X169910666Y-249075857D01*
X169910666Y-249075857D02*
X169958285Y-249171095D01*
X169958285Y-249171095D02*
X170005904Y-249361571D01*
X170005904Y-249361571D02*
X170005904Y-249599666D01*
X170005904Y-249599666D02*
X169958285Y-249790142D01*
X169958285Y-249790142D02*
X169910666Y-249885380D01*
X169910666Y-249885380D02*
X169863047Y-249933000D01*
X169863047Y-249933000D02*
X169767809Y-249980619D01*
X169767809Y-249980619D02*
X169672571Y-249980619D01*
X169672571Y-249980619D02*
X169577333Y-249933000D01*
X169577333Y-249933000D02*
X169529714Y-249885380D01*
X169529714Y-249885380D02*
X169482095Y-249790142D01*
X169482095Y-249790142D02*
X169434476Y-249599666D01*
X169434476Y-249599666D02*
X169434476Y-249361571D01*
X169434476Y-249361571D02*
X169482095Y-249171095D01*
X169482095Y-249171095D02*
X169529714Y-249075857D01*
X169529714Y-249075857D02*
X169577333Y-249028238D01*
X169577333Y-249028238D02*
X169672571Y-248980619D01*
%TO.C,C35*%
X68032580Y-156572457D02*
X68080200Y-156620076D01*
X68080200Y-156620076D02*
X68127819Y-156762933D01*
X68127819Y-156762933D02*
X68127819Y-156858171D01*
X68127819Y-156858171D02*
X68080200Y-157001028D01*
X68080200Y-157001028D02*
X67984961Y-157096266D01*
X67984961Y-157096266D02*
X67889723Y-157143885D01*
X67889723Y-157143885D02*
X67699247Y-157191504D01*
X67699247Y-157191504D02*
X67556390Y-157191504D01*
X67556390Y-157191504D02*
X67365914Y-157143885D01*
X67365914Y-157143885D02*
X67270676Y-157096266D01*
X67270676Y-157096266D02*
X67175438Y-157001028D01*
X67175438Y-157001028D02*
X67127819Y-156858171D01*
X67127819Y-156858171D02*
X67127819Y-156762933D01*
X67127819Y-156762933D02*
X67175438Y-156620076D01*
X67175438Y-156620076D02*
X67223057Y-156572457D01*
X67127819Y-156239123D02*
X67127819Y-155620076D01*
X67127819Y-155620076D02*
X67508771Y-155953409D01*
X67508771Y-155953409D02*
X67508771Y-155810552D01*
X67508771Y-155810552D02*
X67556390Y-155715314D01*
X67556390Y-155715314D02*
X67604009Y-155667695D01*
X67604009Y-155667695D02*
X67699247Y-155620076D01*
X67699247Y-155620076D02*
X67937342Y-155620076D01*
X67937342Y-155620076D02*
X68032580Y-155667695D01*
X68032580Y-155667695D02*
X68080200Y-155715314D01*
X68080200Y-155715314D02*
X68127819Y-155810552D01*
X68127819Y-155810552D02*
X68127819Y-156096266D01*
X68127819Y-156096266D02*
X68080200Y-156191504D01*
X68080200Y-156191504D02*
X68032580Y-156239123D01*
X67127819Y-154715314D02*
X67127819Y-155191504D01*
X67127819Y-155191504D02*
X67604009Y-155239123D01*
X67604009Y-155239123D02*
X67556390Y-155191504D01*
X67556390Y-155191504D02*
X67508771Y-155096266D01*
X67508771Y-155096266D02*
X67508771Y-154858171D01*
X67508771Y-154858171D02*
X67556390Y-154762933D01*
X67556390Y-154762933D02*
X67604009Y-154715314D01*
X67604009Y-154715314D02*
X67699247Y-154667695D01*
X67699247Y-154667695D02*
X67937342Y-154667695D01*
X67937342Y-154667695D02*
X68032580Y-154715314D01*
X68032580Y-154715314D02*
X68080200Y-154762933D01*
X68080200Y-154762933D02*
X68127819Y-154858171D01*
X68127819Y-154858171D02*
X68127819Y-155096266D01*
X68127819Y-155096266D02*
X68080200Y-155191504D01*
X68080200Y-155191504D02*
X68032580Y-155239123D01*
%TO.C,R42*%
X188101142Y-249980619D02*
X187767809Y-249504428D01*
X187529714Y-249980619D02*
X187529714Y-248980619D01*
X187529714Y-248980619D02*
X187910666Y-248980619D01*
X187910666Y-248980619D02*
X188005904Y-249028238D01*
X188005904Y-249028238D02*
X188053523Y-249075857D01*
X188053523Y-249075857D02*
X188101142Y-249171095D01*
X188101142Y-249171095D02*
X188101142Y-249313952D01*
X188101142Y-249313952D02*
X188053523Y-249409190D01*
X188053523Y-249409190D02*
X188005904Y-249456809D01*
X188005904Y-249456809D02*
X187910666Y-249504428D01*
X187910666Y-249504428D02*
X187529714Y-249504428D01*
X188958285Y-249313952D02*
X188958285Y-249980619D01*
X188720190Y-248933000D02*
X188482095Y-249647285D01*
X188482095Y-249647285D02*
X189101142Y-249647285D01*
X189434476Y-249075857D02*
X189482095Y-249028238D01*
X189482095Y-249028238D02*
X189577333Y-248980619D01*
X189577333Y-248980619D02*
X189815428Y-248980619D01*
X189815428Y-248980619D02*
X189910666Y-249028238D01*
X189910666Y-249028238D02*
X189958285Y-249075857D01*
X189958285Y-249075857D02*
X190005904Y-249171095D01*
X190005904Y-249171095D02*
X190005904Y-249266333D01*
X190005904Y-249266333D02*
X189958285Y-249409190D01*
X189958285Y-249409190D02*
X189386857Y-249980619D01*
X189386857Y-249980619D02*
X190005904Y-249980619D01*
%TO.C,C40*%
X88022780Y-156714057D02*
X88070400Y-156761676D01*
X88070400Y-156761676D02*
X88118019Y-156904533D01*
X88118019Y-156904533D02*
X88118019Y-156999771D01*
X88118019Y-156999771D02*
X88070400Y-157142628D01*
X88070400Y-157142628D02*
X87975161Y-157237866D01*
X87975161Y-157237866D02*
X87879923Y-157285485D01*
X87879923Y-157285485D02*
X87689447Y-157333104D01*
X87689447Y-157333104D02*
X87546590Y-157333104D01*
X87546590Y-157333104D02*
X87356114Y-157285485D01*
X87356114Y-157285485D02*
X87260876Y-157237866D01*
X87260876Y-157237866D02*
X87165638Y-157142628D01*
X87165638Y-157142628D02*
X87118019Y-156999771D01*
X87118019Y-156999771D02*
X87118019Y-156904533D01*
X87118019Y-156904533D02*
X87165638Y-156761676D01*
X87165638Y-156761676D02*
X87213257Y-156714057D01*
X87451352Y-155856914D02*
X88118019Y-155856914D01*
X87070400Y-156095009D02*
X87784685Y-156333104D01*
X87784685Y-156333104D02*
X87784685Y-155714057D01*
X87118019Y-155142628D02*
X87118019Y-155047390D01*
X87118019Y-155047390D02*
X87165638Y-154952152D01*
X87165638Y-154952152D02*
X87213257Y-154904533D01*
X87213257Y-154904533D02*
X87308495Y-154856914D01*
X87308495Y-154856914D02*
X87498971Y-154809295D01*
X87498971Y-154809295D02*
X87737066Y-154809295D01*
X87737066Y-154809295D02*
X87927542Y-154856914D01*
X87927542Y-154856914D02*
X88022780Y-154904533D01*
X88022780Y-154904533D02*
X88070400Y-154952152D01*
X88070400Y-154952152D02*
X88118019Y-155047390D01*
X88118019Y-155047390D02*
X88118019Y-155142628D01*
X88118019Y-155142628D02*
X88070400Y-155237866D01*
X88070400Y-155237866D02*
X88022780Y-155285485D01*
X88022780Y-155285485D02*
X87927542Y-155333104D01*
X87927542Y-155333104D02*
X87737066Y-155380723D01*
X87737066Y-155380723D02*
X87498971Y-155380723D01*
X87498971Y-155380723D02*
X87308495Y-155333104D01*
X87308495Y-155333104D02*
X87213257Y-155285485D01*
X87213257Y-155285485D02*
X87165638Y-155237866D01*
X87165638Y-155237866D02*
X87118019Y-155142628D01*
%TO.C,C46*%
X111611980Y-132860857D02*
X111659600Y-132908476D01*
X111659600Y-132908476D02*
X111707219Y-133051333D01*
X111707219Y-133051333D02*
X111707219Y-133146571D01*
X111707219Y-133146571D02*
X111659600Y-133289428D01*
X111659600Y-133289428D02*
X111564361Y-133384666D01*
X111564361Y-133384666D02*
X111469123Y-133432285D01*
X111469123Y-133432285D02*
X111278647Y-133479904D01*
X111278647Y-133479904D02*
X111135790Y-133479904D01*
X111135790Y-133479904D02*
X110945314Y-133432285D01*
X110945314Y-133432285D02*
X110850076Y-133384666D01*
X110850076Y-133384666D02*
X110754838Y-133289428D01*
X110754838Y-133289428D02*
X110707219Y-133146571D01*
X110707219Y-133146571D02*
X110707219Y-133051333D01*
X110707219Y-133051333D02*
X110754838Y-132908476D01*
X110754838Y-132908476D02*
X110802457Y-132860857D01*
X111040552Y-132003714D02*
X111707219Y-132003714D01*
X110659600Y-132241809D02*
X111373885Y-132479904D01*
X111373885Y-132479904D02*
X111373885Y-131860857D01*
X110707219Y-131051333D02*
X110707219Y-131241809D01*
X110707219Y-131241809D02*
X110754838Y-131337047D01*
X110754838Y-131337047D02*
X110802457Y-131384666D01*
X110802457Y-131384666D02*
X110945314Y-131479904D01*
X110945314Y-131479904D02*
X111135790Y-131527523D01*
X111135790Y-131527523D02*
X111516742Y-131527523D01*
X111516742Y-131527523D02*
X111611980Y-131479904D01*
X111611980Y-131479904D02*
X111659600Y-131432285D01*
X111659600Y-131432285D02*
X111707219Y-131337047D01*
X111707219Y-131337047D02*
X111707219Y-131146571D01*
X111707219Y-131146571D02*
X111659600Y-131051333D01*
X111659600Y-131051333D02*
X111611980Y-131003714D01*
X111611980Y-131003714D02*
X111516742Y-130956095D01*
X111516742Y-130956095D02*
X111278647Y-130956095D01*
X111278647Y-130956095D02*
X111183409Y-131003714D01*
X111183409Y-131003714D02*
X111135790Y-131051333D01*
X111135790Y-131051333D02*
X111088171Y-131146571D01*
X111088171Y-131146571D02*
X111088171Y-131337047D01*
X111088171Y-131337047D02*
X111135790Y-131432285D01*
X111135790Y-131432285D02*
X111183409Y-131479904D01*
X111183409Y-131479904D02*
X111278647Y-131527523D01*
%TO.C,R41*%
X188078096Y-247440619D02*
X187744763Y-246964428D01*
X187506668Y-247440619D02*
X187506668Y-246440619D01*
X187506668Y-246440619D02*
X187887620Y-246440619D01*
X187887620Y-246440619D02*
X187982858Y-246488238D01*
X187982858Y-246488238D02*
X188030477Y-246535857D01*
X188030477Y-246535857D02*
X188078096Y-246631095D01*
X188078096Y-246631095D02*
X188078096Y-246773952D01*
X188078096Y-246773952D02*
X188030477Y-246869190D01*
X188030477Y-246869190D02*
X187982858Y-246916809D01*
X187982858Y-246916809D02*
X187887620Y-246964428D01*
X187887620Y-246964428D02*
X187506668Y-246964428D01*
X188935239Y-246773952D02*
X188935239Y-247440619D01*
X188697144Y-246393000D02*
X188459049Y-247107285D01*
X188459049Y-247107285D02*
X189078096Y-247107285D01*
X189982858Y-247440619D02*
X189411430Y-247440619D01*
X189697144Y-247440619D02*
X189697144Y-246440619D01*
X189697144Y-246440619D02*
X189601906Y-246583476D01*
X189601906Y-246583476D02*
X189506668Y-246678714D01*
X189506668Y-246678714D02*
X189411430Y-246726333D01*
%TO.C,C30*%
X111611980Y-172860857D02*
X111659600Y-172908476D01*
X111659600Y-172908476D02*
X111707219Y-173051333D01*
X111707219Y-173051333D02*
X111707219Y-173146571D01*
X111707219Y-173146571D02*
X111659600Y-173289428D01*
X111659600Y-173289428D02*
X111564361Y-173384666D01*
X111564361Y-173384666D02*
X111469123Y-173432285D01*
X111469123Y-173432285D02*
X111278647Y-173479904D01*
X111278647Y-173479904D02*
X111135790Y-173479904D01*
X111135790Y-173479904D02*
X110945314Y-173432285D01*
X110945314Y-173432285D02*
X110850076Y-173384666D01*
X110850076Y-173384666D02*
X110754838Y-173289428D01*
X110754838Y-173289428D02*
X110707219Y-173146571D01*
X110707219Y-173146571D02*
X110707219Y-173051333D01*
X110707219Y-173051333D02*
X110754838Y-172908476D01*
X110754838Y-172908476D02*
X110802457Y-172860857D01*
X110707219Y-172527523D02*
X110707219Y-171908476D01*
X110707219Y-171908476D02*
X111088171Y-172241809D01*
X111088171Y-172241809D02*
X111088171Y-172098952D01*
X111088171Y-172098952D02*
X111135790Y-172003714D01*
X111135790Y-172003714D02*
X111183409Y-171956095D01*
X111183409Y-171956095D02*
X111278647Y-171908476D01*
X111278647Y-171908476D02*
X111516742Y-171908476D01*
X111516742Y-171908476D02*
X111611980Y-171956095D01*
X111611980Y-171956095D02*
X111659600Y-172003714D01*
X111659600Y-172003714D02*
X111707219Y-172098952D01*
X111707219Y-172098952D02*
X111707219Y-172384666D01*
X111707219Y-172384666D02*
X111659600Y-172479904D01*
X111659600Y-172479904D02*
X111611980Y-172527523D01*
X110707219Y-171289428D02*
X110707219Y-171194190D01*
X110707219Y-171194190D02*
X110754838Y-171098952D01*
X110754838Y-171098952D02*
X110802457Y-171051333D01*
X110802457Y-171051333D02*
X110897695Y-171003714D01*
X110897695Y-171003714D02*
X111088171Y-170956095D01*
X111088171Y-170956095D02*
X111326266Y-170956095D01*
X111326266Y-170956095D02*
X111516742Y-171003714D01*
X111516742Y-171003714D02*
X111611980Y-171051333D01*
X111611980Y-171051333D02*
X111659600Y-171098952D01*
X111659600Y-171098952D02*
X111707219Y-171194190D01*
X111707219Y-171194190D02*
X111707219Y-171289428D01*
X111707219Y-171289428D02*
X111659600Y-171384666D01*
X111659600Y-171384666D02*
X111611980Y-171432285D01*
X111611980Y-171432285D02*
X111516742Y-171479904D01*
X111516742Y-171479904D02*
X111326266Y-171527523D01*
X111326266Y-171527523D02*
X111088171Y-171527523D01*
X111088171Y-171527523D02*
X110897695Y-171479904D01*
X110897695Y-171479904D02*
X110802457Y-171432285D01*
X110802457Y-171432285D02*
X110754838Y-171384666D01*
X110754838Y-171384666D02*
X110707219Y-171289428D01*
%TO.C,C43*%
X108032580Y-156572457D02*
X108080200Y-156620076D01*
X108080200Y-156620076D02*
X108127819Y-156762933D01*
X108127819Y-156762933D02*
X108127819Y-156858171D01*
X108127819Y-156858171D02*
X108080200Y-157001028D01*
X108080200Y-157001028D02*
X107984961Y-157096266D01*
X107984961Y-157096266D02*
X107889723Y-157143885D01*
X107889723Y-157143885D02*
X107699247Y-157191504D01*
X107699247Y-157191504D02*
X107556390Y-157191504D01*
X107556390Y-157191504D02*
X107365914Y-157143885D01*
X107365914Y-157143885D02*
X107270676Y-157096266D01*
X107270676Y-157096266D02*
X107175438Y-157001028D01*
X107175438Y-157001028D02*
X107127819Y-156858171D01*
X107127819Y-156858171D02*
X107127819Y-156762933D01*
X107127819Y-156762933D02*
X107175438Y-156620076D01*
X107175438Y-156620076D02*
X107223057Y-156572457D01*
X107461152Y-155715314D02*
X108127819Y-155715314D01*
X107080200Y-155953409D02*
X107794485Y-156191504D01*
X107794485Y-156191504D02*
X107794485Y-155572457D01*
X107127819Y-155286742D02*
X107127819Y-154667695D01*
X107127819Y-154667695D02*
X107508771Y-155001028D01*
X107508771Y-155001028D02*
X107508771Y-154858171D01*
X107508771Y-154858171D02*
X107556390Y-154762933D01*
X107556390Y-154762933D02*
X107604009Y-154715314D01*
X107604009Y-154715314D02*
X107699247Y-154667695D01*
X107699247Y-154667695D02*
X107937342Y-154667695D01*
X107937342Y-154667695D02*
X108032580Y-154715314D01*
X108032580Y-154715314D02*
X108080200Y-154762933D01*
X108080200Y-154762933D02*
X108127819Y-154858171D01*
X108127819Y-154858171D02*
X108127819Y-155143885D01*
X108127819Y-155143885D02*
X108080200Y-155239123D01*
X108080200Y-155239123D02*
X108032580Y-155286742D01*
%TO.C,D2*%
X137044905Y-161276619D02*
X137044905Y-160276619D01*
X137044905Y-160276619D02*
X137283000Y-160276619D01*
X137283000Y-160276619D02*
X137425857Y-160324238D01*
X137425857Y-160324238D02*
X137521095Y-160419476D01*
X137521095Y-160419476D02*
X137568714Y-160514714D01*
X137568714Y-160514714D02*
X137616333Y-160705190D01*
X137616333Y-160705190D02*
X137616333Y-160848047D01*
X137616333Y-160848047D02*
X137568714Y-161038523D01*
X137568714Y-161038523D02*
X137521095Y-161133761D01*
X137521095Y-161133761D02*
X137425857Y-161229000D01*
X137425857Y-161229000D02*
X137283000Y-161276619D01*
X137283000Y-161276619D02*
X137044905Y-161276619D01*
X137997286Y-160371857D02*
X138044905Y-160324238D01*
X138044905Y-160324238D02*
X138140143Y-160276619D01*
X138140143Y-160276619D02*
X138378238Y-160276619D01*
X138378238Y-160276619D02*
X138473476Y-160324238D01*
X138473476Y-160324238D02*
X138521095Y-160371857D01*
X138521095Y-160371857D02*
X138568714Y-160467095D01*
X138568714Y-160467095D02*
X138568714Y-160562333D01*
X138568714Y-160562333D02*
X138521095Y-160705190D01*
X138521095Y-160705190D02*
X137949667Y-161276619D01*
X137949667Y-161276619D02*
X138568714Y-161276619D01*
%TO.C,C50*%
X71611980Y-132860857D02*
X71659600Y-132908476D01*
X71659600Y-132908476D02*
X71707219Y-133051333D01*
X71707219Y-133051333D02*
X71707219Y-133146571D01*
X71707219Y-133146571D02*
X71659600Y-133289428D01*
X71659600Y-133289428D02*
X71564361Y-133384666D01*
X71564361Y-133384666D02*
X71469123Y-133432285D01*
X71469123Y-133432285D02*
X71278647Y-133479904D01*
X71278647Y-133479904D02*
X71135790Y-133479904D01*
X71135790Y-133479904D02*
X70945314Y-133432285D01*
X70945314Y-133432285D02*
X70850076Y-133384666D01*
X70850076Y-133384666D02*
X70754838Y-133289428D01*
X70754838Y-133289428D02*
X70707219Y-133146571D01*
X70707219Y-133146571D02*
X70707219Y-133051333D01*
X70707219Y-133051333D02*
X70754838Y-132908476D01*
X70754838Y-132908476D02*
X70802457Y-132860857D01*
X70707219Y-131956095D02*
X70707219Y-132432285D01*
X70707219Y-132432285D02*
X71183409Y-132479904D01*
X71183409Y-132479904D02*
X71135790Y-132432285D01*
X71135790Y-132432285D02*
X71088171Y-132337047D01*
X71088171Y-132337047D02*
X71088171Y-132098952D01*
X71088171Y-132098952D02*
X71135790Y-132003714D01*
X71135790Y-132003714D02*
X71183409Y-131956095D01*
X71183409Y-131956095D02*
X71278647Y-131908476D01*
X71278647Y-131908476D02*
X71516742Y-131908476D01*
X71516742Y-131908476D02*
X71611980Y-131956095D01*
X71611980Y-131956095D02*
X71659600Y-132003714D01*
X71659600Y-132003714D02*
X71707219Y-132098952D01*
X71707219Y-132098952D02*
X71707219Y-132337047D01*
X71707219Y-132337047D02*
X71659600Y-132432285D01*
X71659600Y-132432285D02*
X71611980Y-132479904D01*
X70707219Y-131289428D02*
X70707219Y-131194190D01*
X70707219Y-131194190D02*
X70754838Y-131098952D01*
X70754838Y-131098952D02*
X70802457Y-131051333D01*
X70802457Y-131051333D02*
X70897695Y-131003714D01*
X70897695Y-131003714D02*
X71088171Y-130956095D01*
X71088171Y-130956095D02*
X71326266Y-130956095D01*
X71326266Y-130956095D02*
X71516742Y-131003714D01*
X71516742Y-131003714D02*
X71611980Y-131051333D01*
X71611980Y-131051333D02*
X71659600Y-131098952D01*
X71659600Y-131098952D02*
X71707219Y-131194190D01*
X71707219Y-131194190D02*
X71707219Y-131289428D01*
X71707219Y-131289428D02*
X71659600Y-131384666D01*
X71659600Y-131384666D02*
X71611980Y-131432285D01*
X71611980Y-131432285D02*
X71516742Y-131479904D01*
X71516742Y-131479904D02*
X71326266Y-131527523D01*
X71326266Y-131527523D02*
X71088171Y-131527523D01*
X71088171Y-131527523D02*
X70897695Y-131479904D01*
X70897695Y-131479904D02*
X70802457Y-131432285D01*
X70802457Y-131432285D02*
X70754838Y-131384666D01*
X70754838Y-131384666D02*
X70707219Y-131289428D01*
%TO.C,R33*%
X168101142Y-229980619D02*
X167767809Y-229504428D01*
X167529714Y-229980619D02*
X167529714Y-228980619D01*
X167529714Y-228980619D02*
X167910666Y-228980619D01*
X167910666Y-228980619D02*
X168005904Y-229028238D01*
X168005904Y-229028238D02*
X168053523Y-229075857D01*
X168053523Y-229075857D02*
X168101142Y-229171095D01*
X168101142Y-229171095D02*
X168101142Y-229313952D01*
X168101142Y-229313952D02*
X168053523Y-229409190D01*
X168053523Y-229409190D02*
X168005904Y-229456809D01*
X168005904Y-229456809D02*
X167910666Y-229504428D01*
X167910666Y-229504428D02*
X167529714Y-229504428D01*
X168434476Y-228980619D02*
X169053523Y-228980619D01*
X169053523Y-228980619D02*
X168720190Y-229361571D01*
X168720190Y-229361571D02*
X168863047Y-229361571D01*
X168863047Y-229361571D02*
X168958285Y-229409190D01*
X168958285Y-229409190D02*
X169005904Y-229456809D01*
X169005904Y-229456809D02*
X169053523Y-229552047D01*
X169053523Y-229552047D02*
X169053523Y-229790142D01*
X169053523Y-229790142D02*
X169005904Y-229885380D01*
X169005904Y-229885380D02*
X168958285Y-229933000D01*
X168958285Y-229933000D02*
X168863047Y-229980619D01*
X168863047Y-229980619D02*
X168577333Y-229980619D01*
X168577333Y-229980619D02*
X168482095Y-229933000D01*
X168482095Y-229933000D02*
X168434476Y-229885380D01*
X169386857Y-228980619D02*
X170005904Y-228980619D01*
X170005904Y-228980619D02*
X169672571Y-229361571D01*
X169672571Y-229361571D02*
X169815428Y-229361571D01*
X169815428Y-229361571D02*
X169910666Y-229409190D01*
X169910666Y-229409190D02*
X169958285Y-229456809D01*
X169958285Y-229456809D02*
X170005904Y-229552047D01*
X170005904Y-229552047D02*
X170005904Y-229790142D01*
X170005904Y-229790142D02*
X169958285Y-229885380D01*
X169958285Y-229885380D02*
X169910666Y-229933000D01*
X169910666Y-229933000D02*
X169815428Y-229980619D01*
X169815428Y-229980619D02*
X169529714Y-229980619D01*
X169529714Y-229980619D02*
X169434476Y-229933000D01*
X169434476Y-229933000D02*
X169386857Y-229885380D01*
D11*
%TO.C,R4*%
X162700578Y-53768000D02*
X162183422Y-53768000D01*
X162700578Y-55188000D02*
X162183422Y-55188000D01*
%TO.C,C5*%
X178948000Y-53978001D02*
G75*
G03*
X178948000Y-54977999I269450J-499999D01*
G01*
X180348000Y-54978000D02*
G75*
G03*
X180348000Y-53978000I-269451J500000D01*
G01*
X178948000Y-54978000D02*
X180348000Y-54978000D01*
X180348000Y-53978000D02*
X178948000Y-53978000D01*
%TO.C,R19*%
X182700578Y-53768000D02*
X182183422Y-53768000D01*
X182700578Y-55188000D02*
X182183422Y-55188000D01*
%TO.C,R6*%
X162183422Y-57728000D02*
X162700578Y-57728000D01*
X162183422Y-56308000D02*
X162700578Y-56308000D01*
%TO.C,C6*%
X140348000Y-53978000D02*
X138948000Y-53978000D01*
X138948000Y-54978000D02*
X140348000Y-54978000D01*
X140348000Y-54978000D02*
G75*
G03*
X140348000Y-53978000I-269451J500000D01*
G01*
X138948000Y-53978001D02*
G75*
G03*
X138948000Y-54977999I269450J-499999D01*
G01*
%TO.C,R3*%
X142700578Y-55188000D02*
X142183422Y-55188000D01*
X142700578Y-53768000D02*
X142183422Y-53768000D01*
%TO.C,R27*%
X182180622Y-57728000D02*
X182697778Y-57728000D01*
X182180622Y-56308000D02*
X182697778Y-56308000D01*
%TO.C,R5*%
X142183422Y-57728000D02*
X142700578Y-57728000D01*
X142183422Y-56308000D02*
X142700578Y-56308000D01*
%TO.C,C7*%
X158948000Y-53978001D02*
G75*
G03*
X158948000Y-54977999I269450J-499999D01*
G01*
X160348000Y-54978000D02*
G75*
G03*
X160348000Y-53978000I-269451J500000D01*
G01*
X158948000Y-54978000D02*
X160348000Y-54978000D01*
X160348000Y-53978000D02*
X158948000Y-53978000D01*
D12*
%TO.C,U4*%
X159326000Y-180590000D02*
G75*
G03*
X159326000Y-180590000I-100000J0D01*
G01*
D13*
X200216000Y-151510000D02*
X200216000Y-180020000D01*
X149266000Y-151510000D02*
X200216000Y-151510000D01*
X149266000Y-151510000D02*
X200216000Y-151510000D01*
X200216000Y-156960000D02*
X200216000Y-151510000D01*
X149266000Y-162240000D02*
X149266000Y-151510000D01*
X149266000Y-168951000D02*
X149266000Y-162240000D01*
X200216000Y-174650000D02*
X200216000Y-156960000D01*
X200216000Y-180020000D02*
X200216000Y-174650000D01*
X200216000Y-180020000D02*
X149266000Y-180020000D01*
X200216000Y-180020000D02*
X149266000Y-180020000D01*
X149266000Y-180020000D02*
X149266000Y-151510000D01*
X149266000Y-180020000D02*
X149266000Y-168951000D01*
D11*
%TO.C,U6*%
X187916000Y-145270000D02*
X187916000Y-140130000D01*
X190576000Y-140130000D02*
X187916000Y-140130000D01*
X190576000Y-145270000D02*
X187916000Y-145270000D01*
X190576000Y-145270000D02*
X190576000Y-140130000D01*
X190576000Y-146540000D02*
X190576000Y-147870000D01*
X190576000Y-147870000D02*
X189246000Y-147870000D01*
%TO.C,C36*%
X186846000Y-147039999D02*
G75*
G03*
X186846000Y-146040001I-269450J499999D01*
G01*
X185446000Y-146040000D02*
G75*
G03*
X185446000Y-147040000I269451J-500000D01*
G01*
X186846000Y-146040000D02*
X185446000Y-146040000D01*
X185446000Y-147040000D02*
X186846000Y-147040000D01*
%TO.C,R29*%
X185187422Y-142150000D02*
X185704578Y-142150000D01*
X185187422Y-140730000D02*
X185704578Y-140730000D01*
%TO.C,C22*%
X165196000Y-124720000D02*
X165196000Y-126120000D01*
X166196000Y-126120000D02*
X166196000Y-124720000D01*
X166196000Y-124720000D02*
G75*
G03*
X165196000Y-124720000I-500000J-269451D01*
G01*
X165196001Y-126120000D02*
G75*
G03*
X166195999Y-126120000I499999J269450D01*
G01*
%TO.C,C15*%
X170196000Y-126120000D02*
X170196000Y-124720000D01*
X169196000Y-124720000D02*
X169196000Y-126120000D01*
X169196000Y-126120000D02*
G75*
G03*
X170196000Y-126120000I500000J269451D01*
G01*
X170195999Y-124720000D02*
G75*
G03*
X169196001Y-124720000I-499999J-269450D01*
G01*
%TO.C,R34*%
X185700578Y-227688000D02*
X185183422Y-227688000D01*
X185700578Y-226268000D02*
X185183422Y-226268000D01*
%TO.C,R21*%
X145700578Y-207688000D02*
X145183422Y-207688000D01*
X145700578Y-206268000D02*
X145183422Y-206268000D01*
%TO.C,C23*%
X162196000Y-125790000D02*
X162196000Y-127190000D01*
X163196000Y-127190000D02*
X163196000Y-125790000D01*
X163196000Y-125790000D02*
G75*
G03*
X162196000Y-125790000I-500000J-269451D01*
G01*
X162196001Y-127190000D02*
G75*
G03*
X163195999Y-127190000I499999J269450D01*
G01*
%TO.C,R35*%
X185183422Y-228808000D02*
X185700578Y-228808000D01*
X185183422Y-230228000D02*
X185700578Y-230228000D01*
%TO.C,C39*%
X183348000Y-246478000D02*
X181948000Y-246478000D01*
X181948000Y-247478000D02*
X183348000Y-247478000D01*
X183348000Y-247478000D02*
G75*
G03*
X183348000Y-246478000I-269451J500000D01*
G01*
X181948000Y-246478001D02*
G75*
G03*
X181948000Y-247477999I269450J-499999D01*
G01*
D13*
%TO.C,RV1*%
X171940500Y-124770000D02*
X178540500Y-124770000D01*
X171940500Y-126935000D02*
X171940500Y-124770000D01*
X171940500Y-131760000D02*
X171940500Y-129475000D01*
X178540500Y-124770000D02*
X178540500Y-126935000D01*
X178540500Y-129475000D02*
X178540500Y-131760000D01*
X178540500Y-131770000D02*
X171940500Y-131770000D01*
D12*
X171276500Y-128240000D02*
G75*
G03*
X171276500Y-128240000I-100000J0D01*
G01*
D11*
%TO.C,C25*%
X163348000Y-206478000D02*
X161948000Y-206478000D01*
X161948000Y-207478000D02*
X163348000Y-207478000D01*
X163348000Y-207478000D02*
G75*
G03*
X163348000Y-206478000I-269451J500000D01*
G01*
X161948000Y-206478001D02*
G75*
G03*
X161948000Y-207477999I269450J-499999D01*
G01*
%TO.C,Q3*%
X156936000Y-141177500D02*
X156936000Y-142977500D01*
X156936000Y-141177500D02*
X156936000Y-140377500D01*
X160056000Y-141177500D02*
X160056000Y-141977500D01*
X160056000Y-141177500D02*
X160056000Y-140377500D01*
%TO.C,C24*%
X143348000Y-206478000D02*
X141948000Y-206478000D01*
X141948000Y-207478000D02*
X143348000Y-207478000D01*
X143348000Y-207478000D02*
G75*
G03*
X143348000Y-206478000I-269451J500000D01*
G01*
X141948000Y-206478001D02*
G75*
G03*
X141948000Y-207477999I269450J-499999D01*
G01*
%TO.C,C31*%
X90500000Y-173200000D02*
X90500000Y-171800000D01*
X89500000Y-171800000D02*
X89500000Y-173200000D01*
X89500000Y-173200000D02*
G75*
G03*
X90500000Y-173200000I500000J269451D01*
G01*
X90499999Y-171800000D02*
G75*
G03*
X89500001Y-171800000I-499999J-269450D01*
G01*
%TO.C,R39*%
X165700578Y-247688000D02*
X165183422Y-247688000D01*
X165700578Y-246268000D02*
X165183422Y-246268000D01*
%TO.C,C21*%
X164196000Y-125790000D02*
X164196000Y-127190000D01*
X165196000Y-127190000D02*
X165196000Y-125790000D01*
X165196000Y-125790000D02*
G75*
G03*
X164196000Y-125790000I-500000J-269451D01*
G01*
X164196001Y-127190000D02*
G75*
G03*
X165195999Y-127190000I499999J269450D01*
G01*
%TO.C,M1*%
X154666000Y-138370000D02*
X154666000Y-137040000D01*
X155996000Y-138370000D02*
X154666000Y-138370000D01*
X157266000Y-138370000D02*
X159866000Y-138370000D01*
X157266000Y-138370000D02*
X157266000Y-135710000D01*
X159866000Y-138370000D02*
X159866000Y-135710000D01*
X157266000Y-135710000D02*
X159866000Y-135710000D01*
%TO.C,D3*%
X146836000Y-132440000D02*
X146836000Y-134460000D01*
X146836000Y-132440000D02*
X150596000Y-132440000D01*
X146836000Y-134460000D02*
X150596000Y-134460000D01*
%TO.C,U7*%
X186766000Y-187350266D02*
X186766000Y-187175266D01*
X187441000Y-184630266D02*
X186766000Y-184630266D01*
X187441000Y-187350266D02*
X186766000Y-187350266D01*
X189311000Y-184630266D02*
X189986000Y-184630266D01*
X189311000Y-187350266D02*
X189986000Y-187350266D01*
X189986000Y-184630266D02*
X189986000Y-184805266D01*
X189986000Y-187350266D02*
X189986000Y-187175266D01*
%TO.C,R25*%
X185700578Y-207688000D02*
X185183422Y-207688000D01*
X185700578Y-206268000D02*
X185183422Y-206268000D01*
%TO.C,R30*%
X145700578Y-227688000D02*
X145183422Y-227688000D01*
X145700578Y-226268000D02*
X145183422Y-226268000D01*
%TO.C,C32*%
X192876000Y-187720266D02*
X189876000Y-187720266D01*
X189876000Y-189720266D02*
X192876000Y-189720266D01*
X192876000Y-189720266D02*
G75*
G03*
X192876000Y-187720266I-1122254J1000000D01*
G01*
X189876000Y-187720266D02*
G75*
G03*
X189876000Y-189720266I1122254J-1000000D01*
G01*
%TO.C,C44*%
X188376000Y-189420266D02*
X188376000Y-188020266D01*
X187376000Y-188020266D02*
X187376000Y-189420266D01*
X187376000Y-189420266D02*
G75*
G03*
X188376000Y-189420266I500000J269451D01*
G01*
X188375999Y-188020266D02*
G75*
G03*
X187376001Y-188020266I-499999J-269450D01*
G01*
%TO.C,C13*%
X171196000Y-126120000D02*
X171196000Y-124720000D01*
X170196000Y-124720000D02*
X170196000Y-126120000D01*
X170196000Y-126120000D02*
G75*
G03*
X171196000Y-126120000I500000J269451D01*
G01*
X171195999Y-124720000D02*
G75*
G03*
X170196001Y-124720000I-499999J-269450D01*
G01*
%TO.C,C14*%
X168196000Y-126120000D02*
X168196000Y-124720000D01*
X167196000Y-124720000D02*
X167196000Y-126120000D01*
X167196000Y-126120000D02*
G75*
G03*
X168196000Y-126120000I500000J269451D01*
G01*
X168195999Y-124720000D02*
G75*
G03*
X167196001Y-124720000I-499999J-269450D01*
G01*
D14*
%TO.C,U1*%
X145409000Y-190465603D02*
X127883000Y-190465603D01*
X145409000Y-162424003D02*
X145409000Y-190465603D01*
X127883800Y-190465603D02*
X127883800Y-163440003D01*
X127883000Y-162424003D02*
X145409000Y-162424003D01*
X127883000Y-162424003D02*
X127883000Y-163440003D01*
D11*
%TO.C,C3*%
X142519646Y-148762796D02*
X142519646Y-145762796D01*
X140519646Y-145762796D02*
X140519646Y-148762796D01*
X140519646Y-148762796D02*
G75*
G03*
X142519646Y-148762796I1000000J1122254D01*
G01*
X142519646Y-145762796D02*
G75*
G03*
X140519646Y-145762796I-1000000J-1122254D01*
G01*
%TO.C,C38*%
X163348000Y-246478000D02*
X161948000Y-246478000D01*
X161948000Y-247478000D02*
X163348000Y-247478000D01*
X163348000Y-247478000D02*
G75*
G03*
X163348000Y-246478000I-269451J500000D01*
G01*
X161948000Y-246478001D02*
G75*
G03*
X161948000Y-247477999I269450J-499999D01*
G01*
%TO.C,C26*%
X183348000Y-206478000D02*
X181948000Y-206478000D01*
X181948000Y-207478000D02*
X183348000Y-207478000D01*
X183348000Y-207478000D02*
G75*
G03*
X183348000Y-206478000I-269451J500000D01*
G01*
X181948000Y-206478001D02*
G75*
G03*
X181948000Y-207477999I269450J-499999D01*
G01*
%TO.C,L1*%
X146616000Y-138530000D02*
X146616000Y-137200000D01*
X147946000Y-138530000D02*
X146616000Y-138530000D01*
X149216000Y-138530000D02*
X151816000Y-138530000D01*
X149216000Y-138530000D02*
X149216000Y-135870000D01*
X151816000Y-138530000D02*
X151816000Y-135870000D01*
X149216000Y-135870000D02*
X151816000Y-135870000D01*
%TO.C,C27*%
X143348000Y-226478000D02*
X141948000Y-226478000D01*
X141948000Y-227478000D02*
X143348000Y-227478000D01*
X143348000Y-227478000D02*
G75*
G03*
X143348000Y-226478000I-269451J500000D01*
G01*
X141948000Y-226478001D02*
G75*
G03*
X141948000Y-227477999I269450J-499999D01*
G01*
%TO.C,C11*%
X167196000Y-126120000D02*
X167196000Y-124720000D01*
X166196000Y-124720000D02*
X166196000Y-126120000D01*
X166196000Y-126120000D02*
G75*
G03*
X167196000Y-126120000I500000J269451D01*
G01*
X167195999Y-124720000D02*
G75*
G03*
X166196001Y-124720000I-499999J-269450D01*
G01*
%TO.C,R17*%
X155304578Y-143025000D02*
X154787422Y-143025000D01*
X155304578Y-141605000D02*
X154787422Y-141605000D01*
%TO.C,R24*%
X165183422Y-208808000D02*
X165700578Y-208808000D01*
X165183422Y-210228000D02*
X165700578Y-210228000D01*
%TO.C,C37*%
X143348000Y-246478000D02*
X141948000Y-246478000D01*
X141948000Y-247478000D02*
X143348000Y-247478000D01*
X143348000Y-247478000D02*
G75*
G03*
X143348000Y-246478000I-269451J500000D01*
G01*
X141948000Y-246478001D02*
G75*
G03*
X141948000Y-247477999I269450J-499999D01*
G01*
%TO.C,R31*%
X145183422Y-228808000D02*
X145700578Y-228808000D01*
X145183422Y-230228000D02*
X145700578Y-230228000D01*
%TO.C,D1*%
X131229646Y-120052796D02*
X129209646Y-120052796D01*
X131229646Y-120052796D02*
X131229646Y-123812796D01*
X129209646Y-120052796D02*
X129209646Y-123812796D01*
%TO.C,R20*%
X193376046Y-60861078D02*
X193376046Y-60343922D01*
X191956046Y-60861078D02*
X191956046Y-60343922D01*
%TO.C,R26*%
X185180622Y-208808000D02*
X185697778Y-208808000D01*
X185180622Y-210228000D02*
X185697778Y-210228000D01*
%TO.C,C34*%
X188376000Y-188020266D02*
X188376000Y-189420266D01*
X189376000Y-189420266D02*
X189376000Y-188020266D01*
X189376000Y-188020266D02*
G75*
G03*
X188376000Y-188020266I-500000J-269451D01*
G01*
X188376001Y-189420266D02*
G75*
G03*
X189375999Y-189420266I499999J269450D01*
G01*
%TO.C,R22*%
X145183422Y-208808000D02*
X145700578Y-208808000D01*
X145183422Y-210228000D02*
X145700578Y-210228000D01*
%TO.C,C16*%
X132119646Y-118512796D02*
X132119646Y-121512796D01*
X134119646Y-121512796D02*
X134119646Y-118512796D01*
X134119646Y-118512796D02*
G75*
G03*
X132119646Y-118512796I-1000000J-1122254D01*
G01*
X132119646Y-121512796D02*
G75*
G03*
X134119646Y-121512796I1000000J1122254D01*
G01*
%TO.C,R37*%
X145700578Y-247688000D02*
X145183422Y-247688000D01*
X145700578Y-246268000D02*
X145183422Y-246268000D01*
%TO.C,C2*%
X187666046Y-62102500D02*
G75*
G03*
X189666046Y-62102500I1000000J1122254D01*
G01*
X189666046Y-59102500D02*
G75*
G03*
X187666046Y-59102500I-1000000J-1122254D01*
G01*
X189666046Y-62102500D02*
X189666046Y-59102500D01*
X187666046Y-59102500D02*
X187666046Y-62102500D01*
%TO.C,C47*%
X191076000Y-183490266D02*
X189676000Y-183490266D01*
X189676000Y-184490266D02*
X191076000Y-184490266D01*
X191076000Y-184490266D02*
G75*
G03*
X191076000Y-183490266I-269451J500000D01*
G01*
X189676000Y-183490267D02*
G75*
G03*
X189676000Y-184490265I269450J-499999D01*
G01*
%TO.C,C17*%
X143874634Y-154486023D02*
X140874634Y-154486023D01*
X140874634Y-156486023D02*
X143874634Y-156486023D01*
X143874634Y-156486023D02*
G75*
G03*
X143874634Y-154486023I-1122254J1000000D01*
G01*
X140874634Y-154486023D02*
G75*
G03*
X140874634Y-156486023I1122254J-1000000D01*
G01*
%TO.C,C33*%
X69500000Y-171800000D02*
X69500000Y-173200000D01*
X70500000Y-173200000D02*
X70500000Y-171800000D01*
X70500000Y-171800000D02*
G75*
G03*
X69500000Y-171800000I-500000J-269451D01*
G01*
X69500001Y-173200000D02*
G75*
G03*
X70499999Y-173200000I499999J269450D01*
G01*
%TO.C,R15*%
X147254578Y-143185000D02*
X146737422Y-143185000D01*
X147254578Y-141765000D02*
X146737422Y-141765000D01*
%TO.C,R23*%
X165700578Y-207688000D02*
X165183422Y-207688000D01*
X165700578Y-206268000D02*
X165183422Y-206268000D01*
%TO.C,R18*%
X158742078Y-145275000D02*
X158224922Y-145275000D01*
X158742078Y-143855000D02*
X158224922Y-143855000D01*
%TO.C,C28*%
X163348000Y-226478000D02*
X161948000Y-226478000D01*
X161948000Y-227478000D02*
X163348000Y-227478000D01*
X163348000Y-227478000D02*
G75*
G03*
X163348000Y-226478000I-269451J500000D01*
G01*
X161948000Y-226478001D02*
G75*
G03*
X161948000Y-227477999I269450J-499999D01*
G01*
%TO.C,J1*%
X175271000Y-119602998D02*
X175271000Y-119002998D01*
X175161000Y-119602998D02*
X175271000Y-119602998D01*
X172396000Y-122192998D02*
X172196000Y-121792998D01*
X172196000Y-121792998D02*
X171996000Y-122192998D01*
X171996000Y-122192998D02*
X172396000Y-122192998D01*
X152731000Y-119602998D02*
X152621000Y-119602998D01*
X152621000Y-119602998D02*
X152621000Y-119002998D01*
%TO.C,R38*%
X145183422Y-248808000D02*
X145700578Y-248808000D01*
X145183422Y-250228000D02*
X145700578Y-250228000D01*
%TO.C,C4*%
X129146000Y-158090000D02*
X129146000Y-161090000D01*
X131146000Y-161090000D02*
X131146000Y-158090000D01*
X131146000Y-158090000D02*
G75*
G03*
X129146000Y-158090000I-1000000J-1122254D01*
G01*
X129146000Y-161090000D02*
G75*
G03*
X131146000Y-161090000I1000000J1122254D01*
G01*
%TO.C,C1*%
X185626000Y-180790266D02*
X185626000Y-182190266D01*
X186626000Y-182190266D02*
X186626000Y-180790266D01*
X186626000Y-180790266D02*
G75*
G03*
X185626000Y-180790266I-500000J-269451D01*
G01*
X185626001Y-182190266D02*
G75*
G03*
X186625999Y-182190266I499999J269450D01*
G01*
%TO.C,U8*%
X196981261Y-147870000D02*
X196981261Y-140190000D01*
X199641261Y-140190000D02*
X196981261Y-140190000D01*
X199641261Y-147870000D02*
X196981261Y-147870000D01*
X199641261Y-147870000D02*
X199641261Y-140190000D01*
X199641261Y-149140000D02*
X199641261Y-150470000D01*
X199641261Y-150470000D02*
X198311261Y-150470000D01*
D14*
%TO.C,U2*%
X131568146Y-122863796D02*
X142845746Y-122863796D01*
X131568946Y-145063396D02*
X131568946Y-122863796D01*
X142844946Y-122863796D02*
X142844946Y-144047396D01*
X142845746Y-145063396D02*
X131568146Y-145063396D01*
X142845746Y-145063396D02*
X142845746Y-143971196D01*
D11*
%TO.C,R32*%
X165700578Y-227688000D02*
X165183422Y-227688000D01*
X165700578Y-226268000D02*
X165183422Y-226268000D01*
%TO.C,C49*%
X90500000Y-133200000D02*
X90500000Y-131800000D01*
X89500000Y-131800000D02*
X89500000Y-133200000D01*
X89500000Y-133200000D02*
G75*
G03*
X90500000Y-133200000I500000J269451D01*
G01*
X90499999Y-131800000D02*
G75*
G03*
X89500001Y-131800000I-499999J-269450D01*
G01*
%TO.C,C29*%
X183348000Y-226478000D02*
X181948000Y-226478000D01*
X181948000Y-227478000D02*
X183348000Y-227478000D01*
X183348000Y-227478000D02*
G75*
G03*
X183348000Y-226478000I-269451J500000D01*
G01*
X181948000Y-226478001D02*
G75*
G03*
X181948000Y-227477999I269450J-499999D01*
G01*
D13*
%TO.C,U3*%
X134255000Y-152230000D02*
X134255000Y-152395000D01*
X134255000Y-158730000D02*
X134255000Y-158565000D01*
X134255000Y-158730000D02*
X137755000Y-158730000D01*
X137755000Y-152230000D02*
X134255000Y-152230000D01*
X137755000Y-153545000D02*
X137755000Y-152230000D01*
X137755000Y-158730000D02*
X137755000Y-157415000D01*
D12*
X131100000Y-153180000D02*
G75*
G03*
X131100000Y-153180000I-100000J0D01*
G01*
D11*
%TO.C,C18*%
X163196000Y-125790000D02*
X163196000Y-127190000D01*
X164196000Y-127190000D02*
X164196000Y-125790000D01*
X164196000Y-125790000D02*
G75*
G03*
X163196000Y-125790000I-500000J-269451D01*
G01*
X163196001Y-127190000D02*
G75*
G03*
X164195999Y-127190000I499999J269450D01*
G01*
%TO.C,D4*%
X154886000Y-132280000D02*
X154886000Y-134300000D01*
X154886000Y-132280000D02*
X158646000Y-132280000D01*
X154886000Y-134300000D02*
X158646000Y-134300000D01*
%TO.C,R40*%
X165183422Y-248808000D02*
X165700578Y-248808000D01*
X165183422Y-250228000D02*
X165700578Y-250228000D01*
%TO.C,C35*%
X68400000Y-155089200D02*
X68400000Y-156489200D01*
X69400000Y-156489200D02*
X69400000Y-155089200D01*
X69400000Y-155089200D02*
G75*
G03*
X68400000Y-155089200I-500000J-269451D01*
G01*
X68400001Y-156489200D02*
G75*
G03*
X69399999Y-156489200I499999J269450D01*
G01*
%TO.C,R28*%
X191376046Y-60861078D02*
X191376046Y-60343922D01*
X189956046Y-60861078D02*
X189956046Y-60343922D01*
%TO.C,R16*%
X150692078Y-145435000D02*
X150174922Y-145435000D01*
X150692078Y-144015000D02*
X150174922Y-144015000D01*
%TO.C,Q1*%
X148886000Y-141337500D02*
X148886000Y-143137500D01*
X148886000Y-141337500D02*
X148886000Y-140537500D01*
X152006000Y-141337500D02*
X152006000Y-142137500D01*
X152006000Y-141337500D02*
X152006000Y-140537500D01*
%TO.C,R42*%
X185183422Y-248808000D02*
X185700578Y-248808000D01*
X185183422Y-250228000D02*
X185700578Y-250228000D01*
%TO.C,C40*%
X89400000Y-156489200D02*
X89400000Y-155089200D01*
X88400000Y-155089200D02*
X88400000Y-156489200D01*
X88400000Y-156489200D02*
G75*
G03*
X89400000Y-156489200I500000J269451D01*
G01*
X89399999Y-155089200D02*
G75*
G03*
X88400001Y-155089200I-499999J-269450D01*
G01*
%TO.C,R36*%
X194152683Y-142218023D02*
X194669839Y-142218023D01*
X194152683Y-140798023D02*
X194669839Y-140798023D01*
%TO.C,C46*%
X109500000Y-131800000D02*
X109500000Y-133200000D01*
X110500000Y-133200000D02*
X110500000Y-131800000D01*
X110500000Y-131800000D02*
G75*
G03*
X109500000Y-131800000I-500000J-269451D01*
G01*
X109500001Y-133200000D02*
G75*
G03*
X110499999Y-133200000I499999J269450D01*
G01*
%TO.C,R41*%
X185700578Y-247688000D02*
X185183422Y-247688000D01*
X185700578Y-246268000D02*
X185183422Y-246268000D01*
%TO.C,C30*%
X109500000Y-171800000D02*
X109500000Y-173200000D01*
X110500000Y-173200000D02*
X110500000Y-171800000D01*
X110500000Y-171800000D02*
G75*
G03*
X109500000Y-171800000I-500000J-269451D01*
G01*
X109500001Y-173200000D02*
G75*
G03*
X110499999Y-173200000I499999J269450D01*
G01*
%TO.C,C43*%
X108400000Y-155089200D02*
X108400000Y-156489200D01*
X109400000Y-156489200D02*
X109400000Y-155089200D01*
X109400000Y-155089200D02*
G75*
G03*
X108400000Y-155089200I-500000J-269451D01*
G01*
X108400001Y-156489200D02*
G75*
G03*
X109399999Y-156489200I499999J269450D01*
G01*
%TO.C,C41*%
X191944023Y-186240266D02*
X190544023Y-186240266D01*
X190544023Y-187240266D02*
X191944023Y-187240266D01*
X191944023Y-187240266D02*
G75*
G03*
X191944023Y-186240266I-269451J500000D01*
G01*
X190544023Y-186240267D02*
G75*
G03*
X190544023Y-187240265I269450J-499999D01*
G01*
%TO.C,D2*%
X131867000Y-159550000D02*
X131867000Y-161570000D01*
X131867000Y-159550000D02*
X135627000Y-159550000D01*
X131867000Y-161570000D02*
X135627000Y-161570000D01*
%TO.C,C12*%
X169196000Y-126120000D02*
X169196000Y-124720000D01*
X168196000Y-124720000D02*
X168196000Y-126120000D01*
X168196000Y-126120000D02*
G75*
G03*
X169196000Y-126120000I500000J269451D01*
G01*
X169195999Y-124720000D02*
G75*
G03*
X168196001Y-124720000I-499999J-269450D01*
G01*
%TO.C,C50*%
X69500000Y-131800000D02*
X69500000Y-133200000D01*
X70500000Y-133200000D02*
X70500000Y-131800000D01*
X70500000Y-131800000D02*
G75*
G03*
X69500000Y-131800000I-500000J-269451D01*
G01*
X69500001Y-133200000D02*
G75*
G03*
X70499999Y-133200000I499999J269450D01*
G01*
%TO.C,C48*%
X195511261Y-149659999D02*
G75*
G03*
X195511261Y-148660001I-269450J499999D01*
G01*
X194111261Y-148660000D02*
G75*
G03*
X194111261Y-149660000I269451J-500000D01*
G01*
X195511261Y-148660000D02*
X194111261Y-148660000D01*
X194111261Y-149660000D02*
X195511261Y-149660000D01*
%TO.C,R33*%
X165183422Y-228808000D02*
X165700578Y-228808000D01*
X165183422Y-230228000D02*
X165700578Y-230228000D01*
%TO.C,U5*%
X188862046Y-183930060D02*
X187312046Y-183930060D01*
X187312046Y-182130060D02*
X188612046Y-182130060D01*
%TD*%
M02*
